<?xml version="1.0" encoding="utf-8"?>
<!-- Generator: Adobe Illustrator 16.0.0, SVG Export Plug-In . SVG Version: 6.00 Build 0)  -->
<!DOCTYPE svg PUBLIC "-//W3C//DTD SVG 1.1//EN" "http://www.w3.org/Graphics/SVG/1.1/DTD/svg11.dtd">
<svg version="1.1" id="Layer_1" xmlns:svg="http://www.w3.org/2000/svg"
	 xmlns="http://www.w3.org/2000/svg" xmlns:xlink="http://www.w3.org/1999/xlink" x="0px" y="0px" width="576.999px"
	 height="370.365px" viewBox="0.001 -0.369 576.999 370.365" enable-background="new 0.001 -0.369 576.999 370.365"
	 xml:space="preserve">
<g>
	<g transform="translate(52.1712,25.6082)">
		<g transform="matrix(-1,0,0,1,0,0)">
			<g id="schematic">
				<polyline fill="none" stroke="#000000" stroke-width="2" stroke-linecap="round" stroke-linejoin="round" points="
					-74.628,86.589 -64.132,86.589 -56.377,94.302 -46.61,94.302 -33.709,85.589 				"/>
				<polyline fill="none" stroke="#000000" stroke-width="2" stroke-linecap="round" stroke-linejoin="round" points="
					-74.628,106.8 -61.529,106.8 -38.32,106.8 				"/>
				<polyline id="box_1_" fill="none" stroke="#000000" stroke-width="2" stroke-linecap="round" stroke-linejoin="round" points="
					-33.709,129.681 -74.628,129.681 -74.628,68.3 -33.709,68.3 				"/>
				<polygon points="-66.572,89.945 -70.819,95.768 -67.923,96.34 -71.554,103.409 -64.452,94.87 -67.473,94.098 				"/>
				<g id="connector2terminal">
				</g>
				<g id="connector1terminal">
				</g>
				<g id="connector0terminal">
				</g>
				
					<line id="connector2pin" fill="none" stroke="#787878" stroke-width="2" stroke-linecap="round" stroke-linejoin="round" x1="-74.628" y1="106.8" x2="-95.089" y2="106.8"/>
				
					<line id="connector0pin" fill="none" stroke="#787878" stroke-width="2" stroke-linecap="round" stroke-linejoin="round" x1="-74.628" y1="86.749" x2="-95.089" y2="86.749"/>
				
					<line id="connector1pin" fill="none" stroke="#787878" stroke-width="2" stroke-linecap="round" stroke-linejoin="round" x1="-74.628" y1="106.8" x2="-95.089" y2="106.8"/>
				<g transform="matrix(1, 0, 0, 1, 19.3843, 25.585)">
					<text transform="matrix(1 0 0 1 -60.3806 94.9591)" fill="#787878" font-family="'ArialMT'" font-size="12.7876">-</text>
				</g>
				<g transform="matrix(1, 0, 0, 1, 18.5503, 12.1563)">
					<text transform="matrix(1 0 0 1 -61.9177 70.2267)" fill="#787878" font-family="'ArialMT'" font-size="12.7876">+</text>
				</g>
			</g>
		</g>
	</g>
</g>
<g>
	<g transform="translate(75.6806,31.5306)">
		<g id="schematic_1_">
			<rect x="160.836" y="60.384" fill="#FFFFFF" width="81.841" height="61.38"/>
			<text id="label" transform="matrix(1 0 0 1 186.9839 84.6305)" font-family="'ArialMT'" font-size="12.0772">78XX</text>
			
				<line fill="none" stroke="#000000" stroke-width="2" stroke-linecap="round" x1="160.836" y1="121.764" x2="242.676" y2="121.764"/>
			
				<line fill="none" stroke="#000000" stroke-width="2" stroke-linecap="round" x1="242.676" y1="121.764" x2="242.676" y2="60.384"/>
			
				<line fill="none" stroke="#000000" stroke-width="2" stroke-linecap="round" x1="242.676" y1="60.384" x2="160.836" y2="60.384"/>
			
				<line fill="none" stroke="#000000" stroke-width="2" stroke-linecap="round" x1="160.836" y1="60.384" x2="160.836" y2="121.764"/>
			
				<line id="connector1pin_1_" fill="none" stroke="#787878" stroke-width="2" stroke-linecap="round" x1="140.376" y1="80.844" x2="160.836" y2="80.844"/>
			<g id="connector1terminal_1_">
			</g>
			<text transform="matrix(1 0 0 1 148.6304 77.86)" fill="#8C8C8C" font-family="'ArialMT'" font-size="7.1043">2</text>
			<text transform="matrix(1 0 0 1 166.8033 82.8327)" fill="#787878" font-family="'ArialMT'" font-size="9.9459">IN</text>
			
				<line id="connector0pin_1_" fill="none" stroke="#787878" stroke-width="2" stroke-linecap="round" x1="201.755" y1="142.224" x2="201.755" y2="121.764"/>
			<g id="connector0terminal_1_">
			</g>
			<g transform="matrix(1, 0, 0, 1, 20.9001, 25.7759)">
				<g>
					<g transform="rotate(270)">
						<g>
							<text transform="matrix(1 0 0 1 -108.1945 177.871)" fill="#8C8C8C" font-family="'ArialMT'" font-size="7.1043">1</text>
						</g>
					</g>
				</g>
			</g>
			<g transform="matrix(1, 0, 0, 1, 22.6501, 20.076)">
				<g>
					<g transform="rotate(270)">
						<g>
							<text transform="matrix(1 0 0 1 -95.7186 181.0936)" fill="#787878" font-family="'ArialMT'" font-size="9.9459">GND</text>
						</g>
					</g>
				</g>
			</g>
			
				<line id="connector2pin_1_" fill="none" stroke="#787878" stroke-width="2" stroke-linecap="round" x1="263.138" y1="80.844" x2="242.676" y2="80.844"/>
			<g id="connector2terminal_1_">
			</g>
			<text transform="matrix(1 0 0 1 250.9312 77.86)" fill="#8C8C8C" font-family="'ArialMT'" font-size="7.1043">3</text>
			<text transform="matrix(1 0 0 1 215.7144 82.8327)" fill="#787878" font-family="'ArialMT'" font-size="9.9459">OUT</text>
		</g>
	</g>
</g>
<g>
	<g transform="translate(175.308,92.0578)">
		<g transform="matrix(0,1,-1,0,0,0)">
			<g id="schematic_2_">
				
					<line fill="none" stroke="#000000" stroke-width="2" stroke-linecap="round" x1="212.135" y1="-301.408" x2="195.766" y2="-293.225"/>
				
					<line fill="none" stroke="#000000" stroke-width="2" stroke-linecap="round" x1="205.996" y1="-268.67" x2="212.135" y2="-260.489"/>
				
					<line fill="none" stroke="#000000" stroke-width="2" stroke-linecap="round" x1="212.135" y1="-260.489" x2="201.905" y2="-260.489"/>
				
					<line fill="none" stroke="#000000" stroke-width="2" stroke-linecap="round" x1="201.905" y1="-260.489" x2="205.996" y2="-268.67"/>
				
					<line fill="none" stroke="#000000" stroke-width="2" stroke-linecap="round" x1="204.081" y1="-264.516" x2="194.157" y2="-269.478"/>
				
					<line fill="none" stroke="#000000" stroke-width="2" stroke-linecap="round" x1="203.951" y1="-261.511" x2="210.089" y2="-261.511"/>
				
					<line fill="none" stroke="#000000" stroke-width="2" stroke-linecap="round" x1="210.089" y1="-261.511" x2="205.996" y2="-266.628"/>
				
					<line fill="none" stroke="#000000" stroke-width="2" stroke-linecap="round" x1="205.996" y1="-266.628" x2="203.951" y2="-262.532"/>
				
					<line fill="none" stroke="#000000" stroke-width="2" stroke-linecap="round" x1="203.951" y1="-262.532" x2="207.02" y2="-262.532"/>
				
					<line fill="none" stroke="#000000" stroke-width="2" stroke-linecap="round" x1="207.02" y1="-262.532" x2="205.996" y2="-264.58"/>
				
					<rect x="172.238" y="-284.018" transform="matrix(2.578893e-06 1 -1 2.578893e-06 -88.2518 -473.6457)" width="40.919" height="6.138"/>
				
					<line id="connector0pin_2_" fill="none" stroke="#787878" stroke-width="2" stroke-linecap="round" x1="171.213" y1="-280.947" x2="191.677" y2="-280.947"/>
				<g id="connector0terminal_2_">
				</g>
				<text transform="matrix(1 0 0 1 179.4686 -283.9376)" fill="#8C8C8C" font-family="'ArialMT'" font-size="7.1042">1</text>
				
					<line id="connector2pin_2_" fill="none" stroke="#787878" stroke-width="2" stroke-linecap="round" x1="212.135" y1="-240.026" x2="212.135" y2="-260.489"/>
				<g id="connector2terminal_2_">
				</g>
				<g transform="matrix(1, 0, 0, 1, 13.7, 25.5501)">
					<g>
						<g transform="rotate(270)">
							<g>
								<text transform="matrix(1 0 0 1 273.8325 195.4492)" fill="#8C8C8C" font-family="'ArialMT'" font-size="7.1042">2</text>
							</g>
						</g>
					</g>
				</g>
				
					<line id="connector1pin_2_" fill="none" stroke="#787878" stroke-width="2" stroke-linecap="round" x1="212.135" y1="-321.869" x2="212.135" y2="-301.408"/>
				<g id="connector1terminal_2_">
				</g>
				<g transform="matrix(1, 0, 0, 1, 13.7, 3.95001)">
					<g>
						<g transform="rotate(270)">
							<g>
								<text transform="matrix(1 0 0 1 313.6132 195.4492)" fill="#8C8C8C" font-family="'ArialMT'" font-size="7.1042">3</text>
							</g>
						</g>
					</g>
				</g>
			</g>
		</g>
	</g>
</g>
<g>
	<g transform="translate(118.572,0)">
		<g transform="matrix(0,1,-1,0,0,0)">
			<g id="schematic_3_">
				<path fill="#FFFFFF" stroke="#000000" stroke-width="2" d="M34.437-176.458c0-6.166-3.406-11.532-8.447-14.322h2.309v-16.369
					H18.069H7.839v16.369h2.31c-5.035,2.79-8.452,8.156-8.452,14.322s3.414,11.533,8.452,14.322h-2.31v16.37h10.23h10.229v-16.37
					h-2.312C31.025-164.925,34.437-170.292,34.437-176.458z"/>
				<g transform="matrix(1, 0, 0, 1, 4.3203, 16.2754)">
					<text id="label_1_" transform="matrix(1 0 0 1 8.6338 -188.3943)" font-family="'ArialMT'" font-size="12.0772">M</text>
				</g>
				
					<line fill="none" stroke="#000000" stroke-width="2" stroke-linecap="round" x1="7.839" y1="-207.149" x2="7.839" y2="-190.78"/>
				
					<line fill="none" stroke="#000000" stroke-width="2" stroke-linecap="round" x1="7.839" y1="-207.149" x2="18.069" y2="-207.149"/>
				
					<line fill="none" stroke="#000000" stroke-width="2" stroke-linecap="round" x1="18.069" y1="-207.149" x2="28.298" y2="-207.149"/>
				
					<line fill="none" stroke="#000000" stroke-width="2" stroke-linecap="round" x1="28.298" y1="-207.149" x2="28.298" y2="-190.78"/>
				
					<line fill="none" stroke="#000000" stroke-width="2" stroke-linecap="round" x1="28.298" y1="-145.765" x2="28.298" y2="-162.136"/>
				
					<line fill="none" stroke="#000000" stroke-width="2" stroke-linecap="round" x1="28.298" y1="-145.765" x2="18.069" y2="-145.765"/>
				
					<line fill="none" stroke="#000000" stroke-width="2" stroke-linecap="round" x1="18.069" y1="-145.765" x2="7.839" y2="-145.765"/>
				
					<line fill="none" stroke="#000000" stroke-width="2" stroke-linecap="round" x1="7.839" y1="-145.765" x2="7.839" y2="-162.136"/>
				
					<line id="connector0pin_3_" fill="none" stroke="#8C8C8C" stroke-width="2" stroke-linecap="round" stroke-miterlimit="10" x1="18.069" y1="-217.378" x2="18.069" y2="-207.149"/>
				
					<line id="connector1pin_3_" fill="none" stroke="#8C8C8C" stroke-width="2" stroke-linecap="round" stroke-miterlimit="10" x1="18.069" y1="-135.538" x2="18.069" y2="-145.765"/>
				<circle fill="none" stroke="#000000" stroke-width="2" cx="18.069" cy="-176.459" r="16.368"/>
				<g id="connector0terminal_3_">
				</g>
				<g transform="matrix(1, 0, 0, 1, 7.2441, 2.6348)">
					<text transform="matrix(1 0 0 1 14.0186 -213.5193)" fill="#8C8C8C" font-family="'ArialMT'" font-size="7.1042">1</text>
				</g>
				<g transform="matrix(1, 0, 0, 1, 2.40594, 0.864304)">
					<g>
						<g transform="rotate(270)">
							<g>
								<g transform="matrix(0, 1, -1, 0, -6.5263, 2.7464)">
									<text transform="matrix(1 0 0 1 10.166 -204.7596)" fill="#787878" font-family="'ArialMT'" font-size="9.9459">+</text>
								</g>
							</g>
						</g>
					</g>
				</g>
				<g id="connector1terminal_3_">
				</g>
				<g transform="matrix(1, 0, 0, 1, 7.2441, 28.5156)">
					<text transform="matrix(1 0 0 1 14.0186 -165.8552)" fill="#8C8C8C" font-family="'ArialMT'" font-size="7.1042">2</text>
				</g>
				<g transform="matrix(1, 0, 0, 1, 2.40594, 11.0243)">
					<g>
						<g transform="rotate(270)">
							<g>
								<g transform="matrix(0, 1, -1, 0, -13.1007, 3.0257)">
									<text transform="matrix(1 0 0 1 10.6807 -173.9412)" fill="#787878" font-family="'ArialMT'" font-size="9.9459">-</text>
								</g>
							</g>
						</g>
					</g>
				</g>
			</g>
		</g>
	</g>
</g>
<g>
	<g transform="translate(164.421,90.4799)">
		<g transform="matrix(0,-1,1,0,0,0)">
			<g id="schematic_4_">
				
					<line fill="none" stroke="#000000" stroke-width="2" stroke-linecap="round" x1="-145.859" y1="311.61" x2="-142.793" y2="303.429"/>
				
					<line fill="none" stroke="#000000" stroke-width="2" stroke-linecap="round" x1="-142.793" y1="303.429" x2="-137.674" y2="319.796"/>
				
					<line fill="none" stroke="#000000" stroke-width="2" stroke-linecap="round" x1="-137.674" y1="319.796" x2="-132.56" y2="303.429"/>
				
					<line fill="none" stroke="#000000" stroke-width="2" stroke-linecap="round" x1="-132.56" y1="303.429" x2="-127.446" y2="319.796"/>
				
					<line fill="none" stroke="#000000" stroke-width="2" stroke-linecap="round" x1="-127.446" y1="319.796" x2="-122.329" y2="303.429"/>
				
					<line fill="none" stroke="#000000" stroke-width="2" stroke-linecap="round" x1="-122.329" y1="303.429" x2="-117.214" y2="319.796"/>
				
					<line fill="none" stroke="#000000" stroke-width="2" stroke-linecap="round" x1="-117.214" y1="319.796" x2="-112.099" y2="303.429"/>
				
					<line fill="none" stroke="#000000" stroke-width="2" stroke-linecap="round" x1="-112.099" y1="303.429" x2="-106.985" y2="319.796"/>
				
					<line fill="none" stroke="#000000" stroke-width="2" stroke-linecap="round" x1="-106.985" y1="319.796" x2="-104.94" y2="311.61"/>
				
					<line id="connector1pin_4_" fill="none" stroke="#787878" stroke-width="2" stroke-linecap="round" x1="-84.478" y1="311.61" x2="-104.94" y2="311.61"/>
				<g id="connector1terminal_4_">
				</g>
				<text transform="matrix(1 0 0 1 -96.6852 308.6273)" fill="#8C8C8C" font-family="'ArialMT'" font-size="7.1043">2</text>
				
					<line id="connector0pin_4_" fill="none" stroke="#787878" stroke-width="2" stroke-linecap="round" x1="-166.319" y1="311.61" x2="-145.859" y2="311.61"/>
				<g id="connector0terminal_4_">
				</g>
				<text transform="matrix(1 0 0 1 -158.0641 308.6273)" fill="#8C8C8C" font-family="'ArialMT'" font-size="7.1043">1</text>
			</g>
		</g>
	</g>
</g>
<g>
	<g transform="translate(90.4455,73.433)">
		<g id="schematic_5_">
			<path id="connector0pin_5_" fill="none" stroke="#787878" stroke-width="2" stroke-linecap="round" d="M187.036,157.444v-20.461"
				/>
			<g id="connector0terminal_5_">
			</g>
			<path id="path4098" fill="none" stroke="#000000" stroke-width="2" stroke-linecap="round" d="M167.993,157.83h38.078"/>
			<path id="path4100" fill="none" stroke="#000000" stroke-width="2" stroke-linecap="round" d="M174.336,165.633h25.391"/>
			<path id="path4102" fill="none" stroke="#000000" stroke-width="2" stroke-linecap="round" d="M193.373,173.359h-12.686"/>
		</g>
	</g>
</g>
<g>
	<g transform="translate(181.097,45.3269)">
		<g id="schematic_6_">
			<path id="connector0pin_6_" fill="none" stroke="#787878" stroke-width="2" stroke-linecap="round" d="M353.987,105.682V85.223"
				/>
			<g id="connector0terminal_6_">
			</g>
			<path id="path4098_1_" fill="none" stroke="#000000" stroke-width="2" stroke-linecap="round" d="M334.944,106.069h38.08"/>
			<path id="path4100_1_" fill="none" stroke="#000000" stroke-width="2" stroke-linecap="round" d="M341.289,113.868h25.392"/>
			<path id="path4102_1_" fill="none" stroke="#000000" stroke-width="2" stroke-linecap="round" d="M360.326,121.596h-12.688"/>
		</g>
	</g>
</g>
<g>
	<g transform="translate(125.364,83.7269)">
		<g id="schematic_7_">
			<path id="connector0pin_7_" fill="none" stroke="#787878" stroke-width="2" stroke-linecap="round" d="M251.346,176.402v-20.458"
				/>
			<g id="connector0terminal_7_">
			</g>
			<path id="path4098_2_" fill="none" stroke="#000000" stroke-width="2" stroke-linecap="round" d="M232.303,176.791h38.08"/>
			<path id="path4100_2_" fill="none" stroke="#000000" stroke-width="2" stroke-linecap="round" d="M238.647,184.589h25.387"/>
			<path id="path4102_2_" fill="none" stroke="#000000" stroke-width="2" stroke-linecap="round" d="M257.681,192.315h-12.685"/>
		</g>
	</g>
</g>
<g>
	<g transform="translate(134.754,116.438)">
		<g id="schematic_8_">
			<path id="connector0pin_8_" fill="none" stroke="#787878" stroke-width="2" stroke-linecap="round" d="M268.639,236.646v-20.458"
				/>
			<g id="connector0terminal_8_">
			</g>
			<path id="path4098_3_" fill="none" stroke="#000000" stroke-width="2" stroke-linecap="round" d="M249.596,237.034h38.077"/>
			<path id="path4100_3_" fill="none" stroke="#000000" stroke-width="2" stroke-linecap="round" d="M255.937,244.833h25.393"/>
			<path id="path4102_3_" fill="none" stroke="#000000" stroke-width="2" stroke-linecap="round" d="M274.974,252.558h-12.685"/>
		</g>
	</g>
</g>
<g>
	<g transform="translate(192.386,39.5025)">
		<g transform="matrix(-1,0,0,-1,0,0)">
			<g id="schematic_9_">
				
					<line fill="none" stroke="#000000" stroke-width="2" stroke-linecap="round" x1="-332.187" y1="-31.722" x2="-342.415" y2="-31.722"/>
				
					<line fill="none" stroke="#000000" stroke-width="2" stroke-linecap="round" x1="-342.415" y1="-31.722" x2="-352.648" y2="-31.722"/>
				<polygon fill="#FFFFFF" stroke="#000000" stroke-width="2" stroke-linecap="round" points="-342.415,-31.722 -352.648,-52.182 
					-342.415,-52.182 -332.187,-52.182 				"/>
				
					<line fill="none" stroke="#000000" stroke-width="2" stroke-linecap="round" x1="-342.415" y1="-52.182" x2="-342.415" y2="-31.722"/>
				
					<line id="connector0pin_9_" fill="none" stroke="#787878" stroke-width="2" stroke-linecap="round" x1="-342.415" y1="-11.265" x2="-342.415" y2="-31.722"/>
				<g id="connector0terminal_9_">
				</g>
				<g transform="matrix(1, 0, 0, 1, 3.429, 6.4262)">
					<g>
						<g transform="rotate(270)">
							<g>
								<g transform="matrix(1, 0, 0, 1, -12.6912, -0.1726)">
									<text transform="matrix(1 0 0 1 38.2194 -348.3112)" fill="#787878" font-family="'ArialMT'" font-size="5.6834">2</text>
								</g>
							</g>
						</g>
					</g>
				</g>
				
					<line id="connector1pin_5_" fill="none" stroke="#787878" stroke-width="2" stroke-linecap="round" x1="-342.415" y1="-72.645" x2="-342.415" y2="-52.182"/>
				<g id="connector1terminal_5_">
				</g>
				<g transform="matrix(1, 0, 0, 1, 3.429, 1.3462)">
					<g>
						<g transform="rotate(270)">
							<g>
								<g transform="matrix(1, 0, 0, 1, -3.3708, -0.1726)">
									<text transform="matrix(1 0 0 1 64.7408 -348.3112)" fill="#787878" font-family="'ArialMT'" font-size="5.6834">1</text>
								</g>
							</g>
						</g>
					</g>
				</g>
			</g>
		</g>
	</g>
</g>
<g>
	<g transform="translate(129.344,39.208)">
		<g id="schematic_10_">
			
				<line fill="none" stroke="#000000" stroke-width="2" stroke-linecap="round" x1="247.419" y1="176.182" x2="247.419" y2="172.091"/>
			
				<line fill="none" stroke="#000000" stroke-width="2" stroke-linecap="round" x1="247.419" y1="172.091" x2="239.236" y2="165.952"/>
			
				<line fill="none" stroke="#000000" stroke-width="2" stroke-linecap="round" x1="239.236" y1="165.952" x2="257.651" y2="155.724"/>
			
				<line fill="none" stroke="#000000" stroke-width="2" stroke-linecap="round" x1="257.651" y1="155.724" x2="239.236" y2="145.493"/>
			
				<line fill="none" stroke="#000000" stroke-width="2" stroke-linecap="round" x1="239.236" y1="145.493" x2="257.651" y2="135.263"/>
			
				<line fill="none" stroke="#000000" stroke-width="2" stroke-linecap="round" x1="257.651" y1="135.263" x2="239.236" y2="125.032"/>
			
				<line fill="none" stroke="#000000" stroke-width="2" stroke-linecap="round" x1="239.236" y1="125.032" x2="257.651" y2="114.802"/>
			
				<line fill="none" stroke="#000000" stroke-width="2" stroke-linecap="round" x1="257.651" y1="114.802" x2="239.236" y2="104.571"/>
			
				<line fill="none" stroke="#000000" stroke-width="2" stroke-linecap="round" x1="239.236" y1="104.571" x2="247.419" y2="98.435"/>
			
				<line fill="none" stroke="#000000" stroke-width="2" stroke-linecap="round" x1="247.419" y1="98.435" x2="247.419" y2="94.341"/>
			
				<line fill="none" stroke="#000000" stroke-width="2" stroke-linecap="round" x1="257.651" y1="135.263" x2="267.88" y2="125.032"/>
			
				<line fill="none" stroke="#000000" stroke-width="2" stroke-linecap="round" x1="267.88" y1="145.493" x2="257.651" y2="135.263"/>
			
				<line fill="none" stroke="#000000" stroke-width="2" stroke-linecap="round" x1="267.88" y1="125.032" x2="267.88" y2="145.493"/>
			
				<line fill="none" stroke="#000000" stroke-width="2" stroke-linecap="round" x1="263.786" y1="173.112" x2="263.786" y2="152.654"/>
			
				<line fill="none" stroke="#000000" stroke-width="2" stroke-linecap="round" x1="263.786" y1="152.654" x2="268.901" y2="162.883"/>
			
				<line fill="none" stroke="#000000" stroke-width="2" stroke-linecap="round" x1="268.901" y1="162.883" x2="258.672" y2="162.883"/>
			
				<line fill="none" stroke="#000000" stroke-width="2" stroke-linecap="round" x1="258.672" y1="162.883" x2="263.786" y2="152.654"/>
			
				<line id="connector2pin_3_" fill="none" stroke="#787878" stroke-width="2" stroke-linecap="round" x1="247.419" y1="196.645" x2="247.419" y2="176.182"/>
			<g id="connector2terminal_3_">
			</g>
			<g transform="matrix(1, 0, 0, 1, 2.19, 39.9502)">
				<g>
					<g transform="rotate(270)">
						<g>
							<text transform="matrix(1 0 0 1 -148.4365 242.2438)" fill="#8C8C8C" font-family="'ArialMT'" font-size="7.1042">3</text>
						</g>
					</g>
				</g>
			</g>
			
				<line id="connector0pin_10_" fill="none" stroke="#787878" stroke-width="2" stroke-linecap="round" x1="247.419" y1="73.882" x2="247.419" y2="94.341"/>
			<g id="connector0terminal_10_">
			</g>
			<g transform="matrix(1, 0, 0, 1, 2.19, 3.95)">
				<g>
					<g transform="rotate(270)">
						<g>
							<text transform="matrix(1 0 0 1 -82.1359 242.2438)" fill="#8C8C8C" font-family="'ArialMT'" font-size="7.1042">1</text>
						</g>
					</g>
				</g>
			</g>
			
				<line id="connector1pin_6_" fill="none" stroke="#787878" stroke-width="2" stroke-linecap="round" x1="288.338" y1="135.263" x2="267.88" y2="135.263"/>
			<g id="connector1terminal_6_">
			</g>
			<text transform="matrix(1 0 0 1 276.134 132.2773)" fill="#8C8C8C" font-family="'ArialMT'" font-size="7.1042">2</text>
		</g>
	</g>
</g>
<g>
	<line fill="none" stroke="#404040" stroke-width="2" stroke-linecap="round" x1="145.995" y1="111.89" x2="216.056" y2="112.375"/>
</g>
<g>
	<line fill="none" stroke="#404040" stroke-width="2" stroke-linecap="round" x1="146.443" y1="112.355" x2="145.995" y2="111.89"/>
</g>
<circle cx="146.443" cy="112.356" r="4.092"/>
<g>
	
		<line fill="none" stroke="#404040" stroke-width="2" stroke-linecap="round" x1="276.299" y1="173.209" x2="146.443" y2="173.209"/>
</g>
<g>
	
		<line fill="none" stroke="#404040" stroke-width="2" stroke-linecap="round" x1="146.443" y1="173.209" x2="146.443" y2="132.416"/>
</g>
<g>
	
		<line fill="none" stroke="#404040" stroke-width="2" stroke-linecap="round" x1="277.437" y1="173.756" x2="276.299" y2="173.209"/>
</g>
<circle cx="277.437" cy="173.756" r="4.092"/>
<g>
	<line fill="none" stroke="#404040" stroke-width="2" stroke-linecap="round" x1="277.437" y1="173.756" x2="277.48" y2="210.705"/>
</g>
<circle cx="277.437" cy="173.756" r="4.092"/>
<g>
	
		<line fill="none" stroke="#404040" stroke-width="2" stroke-linecap="round" x1="415.334" y1="304.192" x2="403.393" y2="304.192"/>
</g>
<g>
	
		<line fill="none" stroke="#404040" stroke-width="2" stroke-linecap="round" x1="403.393" y1="304.192" x2="403.393" y2="332.911"/>
</g>
<g>
	<line fill="none" stroke="#404040" stroke-width="2" stroke-linecap="round" x1="576" y1="18.025" x2="335.389" y2="18.025"/>
</g>
<circle cx="335.389" cy="18.025" r="4.092"/>
<g>
	<line fill="none" stroke="#404040" stroke-width="2" stroke-linecap="round" x1="497.177" y1="304.192" x2="576" y2="303.435"/>
</g>
<g>
	<line fill="none" stroke="#404040" stroke-width="2" stroke-linecap="round" x1="576" y1="303.435" x2="576" y2="18.025"/>
</g>
<g>
	<line fill="none" stroke="#404040" stroke-width="2" stroke-linecap="round" x1="146.443" y1="18.731" x2="146.443" y2="112.355"/>
</g>
<circle cx="146.443" cy="112.356" r="4.092"/>
<g>
	<line fill="none" stroke="#404040" stroke-width="2" stroke-linecap="round" x1="256.841" y1="18.731" x2="146.443" y2="18.731"/>
</g>
<g>
	<line fill="none" stroke="#404040" stroke-width="2" stroke-linecap="round" x1="254.513" y1="18.069" x2="256.841" y2="18.731"/>
</g>
<g>
	<line fill="none" stroke="#404040" stroke-width="2" stroke-linecap="round" x1="534.801" y1="18.025" x2="534.801" y2="50.766"/>
</g>
<g>
	<line fill="none" stroke="#404040" stroke-width="2" stroke-linecap="round" x1="335.389" y1="18.025" x2="534.801" y2="18.025"/>
</g>
<circle cx="335.389" cy="18.025" r="4.092"/>
<g>
	
		<line fill="none" stroke="#404040" stroke-width="2" stroke-linecap="round" x1="535.084" y1="130.837" x2="534.801" y2="112.146"/>
</g>
<g>
	
		<line fill="none" stroke="#404040" stroke-width="2" stroke-linecap="round" x1="476.031" y1="262.854" x2="476.031" y2="256.799"/>
</g>
<g>
	
		<line fill="none" stroke="#404040" stroke-width="2" stroke-linecap="round" x1="457.033" y1="262.094" x2="476.031" y2="262.854"/>
</g>
<g>
	
		<line fill="none" stroke="#404040" stroke-width="2" stroke-linecap="round" x1="456.255" y1="263.271" x2="457.033" y2="262.094"/>
</g>
<g>
	
		<line fill="none" stroke="#404040" stroke-width="2" stroke-linecap="round" x1="476.736" y1="175.708" x2="417.687" y2="174.471"/>
</g>
<g>
	
		<line fill="none" stroke="#404040" stroke-width="2" stroke-linecap="round" x1="476.031" y1="174.958" x2="476.736" y2="175.708"/>
</g>
<g>
	<line fill="none" stroke="#404040" stroke-width="2" stroke-linecap="round" x1="334.271" y1="112.811" x2="376.766" y2="113.09"/>
</g>
<g>
	
		<line fill="none" stroke="#404040" stroke-width="2" stroke-linecap="round" x1="338.819" y1="112.375" x2="334.271" y2="112.811"/>
</g>
<g>
	
		<line fill="none" stroke="#404040" stroke-width="2" stroke-linecap="round" x1="376.766" y1="235.853" x2="376.705" y2="239.957"/>
</g>
<g id="partLabel">
	<g transform="translate(122.748,0.171605)">
		<g transform="matrix(1,0,0,1,0,0)">
			<g id="schematicLabel">
				<text transform="matrix(1 0 0 1 226.0649 11.6497)" font-family="'ArialMT'" font-size="14.2084">DC Motor</text>
			</g>
		</g>
	</g>
</g>
<g id="partLabel_1_">
	<g transform="translate(156.904,110.173)">
		<g id="schematicLabel_1_">
			<text transform="matrix(1 0 0 1 288.9685 214.2362)" font-family="'ArialMT'" font-size="14.2084">TIP 120 Transistor</text>
		</g>
	</g>
</g>
<g id="partLabel_2_">
	<g transform="translate(172.653,75.4326)">
		<g id="schematicLabel_2_">
			<text transform="matrix(1 0 0 1 317.9734 150.2559)" font-family="'ArialMT'" font-size="14.2084">Resistor</text>
			<text transform="matrix(1 0 0 1 317.9734 164.4648)" font-family="'ArialMT'" font-size="14.2084">1kΩ</text>
		</g>
	</g>
</g>
<g id="partLabel_3_">
	<g transform="translate(161.874,16.681)">
		<g id="schematicLabel_3_">
			<text transform="matrix(1 0 0 1 298.1226 42.0524)" font-family="'ArialMT'" font-size="14.2084">Diode</text>
			<text transform="matrix(1 0 0 1 298.1226 56.2614)" font-family="'ArialMT'" font-size="14.2084">1N4001</text>
		</g>
	</g>
</g>
<g id="partLabel_4_">
	<g transform="translate(135.334,43.208)">
		<g id="schematicLabel_4_">
			<text transform="matrix(1 0 0 1 249.2436 90.9082)" font-family="'ArialMT'" font-size="14.2084">Potentiometer</text>
		</g>
	</g>
</g>
<g id="partLabel_5_">
	<g transform="translate(78.3398,23.8233)">
		<g id="schematicLabel_5_">
			<text transform="matrix(1 0 0 1 144.2788 55.2079)" font-family="'ArialMT'" font-size="14.2084">Voltage Regulator</text>
		</g>
	</g>
</g>
<g id="partLabel_6_">
	<g transform="translate(0,57.0435)">
		<g id="schematicLabel_6_">
			<text transform="matrix(1 0 0 1 4.425049e-04 116.3901)" font-family="'ArialMT'" font-size="14.2084">Power Plug</text>
		</g>
	</g>
</g>
</svg>
