<?xml version="1.0" encoding="utf-8"?>
<!-- Generator: Adobe Illustrator 16.0.0, SVG Export Plug-In . SVG Version: 6.00 Build 0)  -->
<!DOCTYPE svg PUBLIC "-//W3C//DTD SVG 1.1//EN" "http://www.w3.org/Graphics/SVG/1.1/DTD/svg11.dtd">
<svg version="1.1" id="Layer_1" xmlns:svg="http://www.w3.org/2000/svg"
	 xmlns="http://www.w3.org/2000/svg" xmlns:xlink="http://www.w3.org/1999/xlink" x="0px" y="0px" width="576.999px"
	 height="365.822px" viewBox="0.001 -0.371 576.999 365.822" enable-background="new 0.001 -0.371 576.999 365.822"
	 xml:space="preserve">
<g>
	<g transform="translate(52.1712,25.6082)">
		<g transform="matrix(-1,0,0,1,0,0)">
			<g id="schematic">
				<polyline fill="none" stroke="#000000" stroke-width="2" stroke-linecap="round" stroke-linejoin="round" points="
					-74.627,86.589 -64.132,86.589 -56.375,94.301 -46.61,94.301 -33.709,85.59 				"/>
				<polyline fill="none" stroke="#000000" stroke-width="2" stroke-linecap="round" stroke-linejoin="round" points="
					-74.627,106.8 -61.529,106.8 -38.321,106.8 				"/>
				<polyline id="box_1_" fill="none" stroke="#000000" stroke-width="2" stroke-linecap="round" stroke-linejoin="round" points="
					-33.709,129.68 -74.627,129.68 -74.627,68.301 -33.709,68.301 				"/>
				<polygon points="-66.571,89.946 -70.817,95.768 -67.922,96.341 -71.555,103.408 -64.454,94.869 -67.473,94.098 				"/>
				<g id="connector2terminal">
				</g>
				<g id="connector1terminal">
				</g>
				<g id="connector0terminal">
				</g>
				
					<line id="connector2pin" fill="none" stroke="#787878" stroke-width="2" stroke-linecap="round" stroke-linejoin="round" x1="-74.627" y1="106.8" x2="-95.088" y2="106.8"/>
				
					<line id="connector0pin" fill="none" stroke="#787878" stroke-width="2" stroke-linecap="round" stroke-linejoin="round" x1="-74.627" y1="86.75" x2="-95.088" y2="86.75"/>
				
					<line id="connector1pin" fill="none" stroke="#787878" stroke-width="2" stroke-linecap="round" stroke-linejoin="round" x1="-74.627" y1="106.8" x2="-95.088" y2="106.8"/>
				<g transform="matrix(1, 0, 0, 1, 19.3843, 25.585)">
					<text transform="matrix(1 0 0 1 -60.3857 94.9579)" fill="#787878" font-family="'ArialMT'" font-size="12.7875">-</text>
				</g>
				<g transform="matrix(1, 0, 0, 1, 18.5503, 12.1563)">
					<text transform="matrix(1 0 0 1 -61.9189 70.2264)" fill="#787878" font-family="'ArialMT'" font-size="12.7875">+</text>
				</g>
			</g>
		</g>
	</g>
</g>
<g>
	<g transform="translate(75.6806,31.5306)">
		<g id="schematic_1_">
			<rect x="160.836" y="60.383" fill="#FFFFFF" width="81.84" height="61.382"/>
			<text id="label" transform="matrix(1 0 0 1 186.9822 84.6303)" font-family="'ArialMT'" font-size="12.0772">78XX</text>
			
				<line fill="none" stroke="#000000" stroke-width="2" stroke-linecap="round" x1="160.836" y1="121.765" x2="242.676" y2="121.765"/>
			
				<line fill="none" stroke="#000000" stroke-width="2" stroke-linecap="round" x1="242.676" y1="121.765" x2="242.676" y2="60.383"/>
			
				<line fill="none" stroke="#000000" stroke-width="2" stroke-linecap="round" x1="242.676" y1="60.383" x2="160.836" y2="60.383"/>
			
				<line fill="none" stroke="#000000" stroke-width="2" stroke-linecap="round" x1="160.836" y1="60.383" x2="160.836" y2="121.765"/>
			
				<line id="connector1pin_1_" fill="none" stroke="#787878" stroke-width="2" stroke-linecap="round" x1="140.376" y1="80.844" x2="160.836" y2="80.844"/>
			<g id="connector1terminal_1_">
			</g>
			<text transform="matrix(1 0 0 1 148.6277 77.8578)" fill="#8C8C8C" font-family="'ArialMT'" font-size="7.1042">2</text>
			<text transform="matrix(1 0 0 1 166.8006 82.8305)" fill="#787878" font-family="'ArialMT'" font-size="9.9459">IN</text>
			
				<line id="connector0pin_1_" fill="none" stroke="#787878" stroke-width="2" stroke-linecap="round" x1="201.755" y1="142.223" x2="201.755" y2="121.765"/>
			<g id="connector0terminal_1_">
			</g>
			<g transform="matrix(1, 0, 0, 1, 20.9001, 25.7759)">
				<g>
					<g transform="rotate(270)">
						<g>
							<text transform="matrix(1 0 0 1 -108.1913 177.8693)" fill="#8C8C8C" font-family="'ArialMT'" font-size="7.1042">1</text>
						</g>
					</g>
				</g>
			</g>
			<g transform="matrix(1, 0, 0, 1, 22.6501, 20.076)">
				<g>
					<g transform="rotate(270)">
						<g>
							<text transform="matrix(1 0 0 1 -95.7154 181.0929)" fill="#787878" font-family="'ArialMT'" font-size="9.9459">GND</text>
						</g>
					</g>
				</g>
			</g>
			
				<line id="connector2pin_1_" fill="none" stroke="#787878" stroke-width="2" stroke-linecap="round" x1="263.137" y1="80.844" x2="242.676" y2="80.844"/>
			<g id="connector2terminal_1_">
			</g>
			<text transform="matrix(1 0 0 1 250.9285 77.8578)" fill="#8C8C8C" font-family="'ArialMT'" font-size="7.1042">3</text>
			<text transform="matrix(1 0 0 1 215.7127 82.8305)" fill="#787878" font-family="'ArialMT'" font-size="9.9459">OUT</text>
		</g>
	</g>
</g>
<g>
	<g transform="translate(118.572,0)">
		<g transform="matrix(0,1,-1,0,0,0)">
			<g id="schematic_2_">
				<path fill="#FFFFFF" stroke="#000000" stroke-width="2" d="M34.437-176.457c0-6.166-3.405-11.533-8.448-14.322h2.309v-16.367
					H18.069H7.84v16.367h2.309c-5.034,2.789-8.45,8.156-8.45,14.322s3.414,11.533,8.45,14.322H7.84v16.37h10.229h10.229v-16.37
					h-2.312C31.026-164.924,34.437-170.291,34.437-176.457z"/>
				<g transform="matrix(1, 0, 0, 1, 4.3203, 16.2754)">
					<text id="label_1_" transform="matrix(1 0 0 1 8.6326 -188.3975)" font-family="'ArialMT'" font-size="12.0771">M</text>
				</g>
				<line fill="none" stroke="#000000" stroke-width="2" stroke-linecap="round" x1="7.84" y1="-207.147" x2="7.84" y2="-190.779"/>
				
					<line fill="none" stroke="#000000" stroke-width="2" stroke-linecap="round" x1="7.84" y1="-207.147" x2="18.069" y2="-207.147"/>
				
					<line fill="none" stroke="#000000" stroke-width="2" stroke-linecap="round" x1="18.069" y1="-207.147" x2="28.298" y2="-207.147"/>
				
					<line fill="none" stroke="#000000" stroke-width="2" stroke-linecap="round" x1="28.298" y1="-207.147" x2="28.298" y2="-190.779"/>
				
					<line fill="none" stroke="#000000" stroke-width="2" stroke-linecap="round" x1="28.298" y1="-145.765" x2="28.298" y2="-162.135"/>
				
					<line fill="none" stroke="#000000" stroke-width="2" stroke-linecap="round" x1="28.298" y1="-145.765" x2="18.069" y2="-145.765"/>
				
					<line fill="none" stroke="#000000" stroke-width="2" stroke-linecap="round" x1="18.069" y1="-145.765" x2="7.84" y2="-145.765"/>
				<line fill="none" stroke="#000000" stroke-width="2" stroke-linecap="round" x1="7.84" y1="-145.765" x2="7.84" y2="-162.135"/>
				
					<line id="connector0pin_2_" fill="none" stroke="#8C8C8C" stroke-width="2" stroke-linecap="round" stroke-miterlimit="10" x1="18.069" y1="-217.378" x2="18.069" y2="-207.147"/>
				
					<line id="connector1pin_2_" fill="none" stroke="#8C8C8C" stroke-width="2" stroke-linecap="round" stroke-miterlimit="10" x1="18.069" y1="-135.538" x2="18.069" y2="-145.765"/>
				<circle fill="none" stroke="#000000" stroke-width="2" cx="18.069" cy="-176.457" r="16.367"/>
				<g id="connector0terminal_2_">
				</g>
				<g transform="matrix(1, 0, 0, 1, 7.2441, 2.6348)">
					<text transform="matrix(1 0 0 1 14.0174 -213.5225)" fill="#8C8C8C" font-family="'ArialMT'" font-size="7.1042">1</text>
				</g>
				<g transform="matrix(1, 0, 0, 1, 2.40594, 0.864304)">
					<g>
						<g transform="rotate(270)">
							<g>
								<g transform="matrix(0, 1, -1, 0, -6.5263, 2.7464)">
									<text transform="matrix(1 0 0 1 10.1648 -204.7627)" fill="#787878" font-family="'ArialMT'" font-size="9.9459">+</text>
								</g>
							</g>
						</g>
					</g>
				</g>
				<g id="connector1terminal_2_">
				</g>
				<g transform="matrix(1, 0, 0, 1, 7.2441, 28.5156)">
					<text transform="matrix(1 0 0 1 14.0174 -165.8604)" fill="#8C8C8C" font-family="'ArialMT'" font-size="7.1042">2</text>
				</g>
				<g transform="matrix(1, 0, 0, 1, 2.40594, 11.0243)">
					<g>
						<g transform="rotate(270)">
							<g>
								<g transform="matrix(0, 1, -1, 0, -13.1007, 3.0257)">
									<text transform="matrix(1 0 0 1 10.6794 -173.9483)" fill="#787878" font-family="'ArialMT'" font-size="9.9459">-</text>
								</g>
							</g>
						</g>
					</g>
				</g>
			</g>
		</g>
	</g>
</g>
<g>
	<g transform="translate(164.108,91.7911)">
		<g transform="matrix(0,1,-1,0,0,0)">
			<g id="schematic_3_">
				
					<line fill="none" stroke="#000000" stroke-width="2" stroke-linecap="round" x1="211.642" y1="-280.78" x2="195.274" y2="-272.597"/>
				
					<line fill="none" stroke="#000000" stroke-width="2" stroke-linecap="round" x1="205.504" y1="-248.043" x2="211.642" y2="-239.86"/>
				
					<line fill="none" stroke="#000000" stroke-width="2" stroke-linecap="round" x1="211.642" y1="-239.86" x2="201.413" y2="-239.86"/>
				
					<line fill="none" stroke="#000000" stroke-width="2" stroke-linecap="round" x1="201.413" y1="-239.86" x2="205.504" y2="-248.043"/>
				
					<line fill="none" stroke="#000000" stroke-width="2" stroke-linecap="round" x1="203.589" y1="-243.886" x2="193.662" y2="-248.848"/>
				
					<line fill="none" stroke="#000000" stroke-width="2" stroke-linecap="round" x1="203.458" y1="-240.883" x2="209.596" y2="-240.883"/>
				
					<line fill="none" stroke="#000000" stroke-width="2" stroke-linecap="round" x1="209.596" y1="-240.883" x2="205.504" y2="-245.998"/>
				
					<line fill="none" stroke="#000000" stroke-width="2" stroke-linecap="round" x1="205.504" y1="-245.998" x2="203.458" y2="-241.904"/>
				
					<line fill="none" stroke="#000000" stroke-width="2" stroke-linecap="round" x1="203.458" y1="-241.904" x2="206.527" y2="-241.904"/>
				
					<line fill="none" stroke="#000000" stroke-width="2" stroke-linecap="round" x1="206.527" y1="-241.904" x2="205.504" y2="-243.952"/>
				
					<rect x="171.745" y="-263.389" transform="matrix(2.578893e-06 1 -1 2.578893e-06 -68.1152 -452.5245)" width="40.921" height="6.138"/>
				
					<line id="connector0pin_3_" fill="none" stroke="#787878" stroke-width="2" stroke-linecap="round" x1="170.723" y1="-260.32" x2="191.181" y2="-260.32"/>
				<g id="connector0terminal_3_">
				</g>
				<text transform="matrix(1 0 0 1 178.9743 -263.3048)" fill="#8C8C8C" font-family="'ArialMT'" font-size="7.1042">1</text>
				
					<line id="connector2pin_2_" fill="none" stroke="#787878" stroke-width="2" stroke-linecap="round" x1="211.642" y1="-219.399" x2="211.642" y2="-239.86"/>
				<g id="connector2terminal_2_">
				</g>
				<g transform="matrix(1, 0, 0, 1, 13.7, 25.5501)">
					<g>
						<g transform="rotate(270)">
							<g>
								<text transform="matrix(1 0 0 1 253.2026 194.9559)" fill="#8C8C8C" font-family="'ArialMT'" font-size="7.1042">2</text>
							</g>
						</g>
					</g>
				</g>
				
					<line id="connector1pin_3_" fill="none" stroke="#787878" stroke-width="2" stroke-linecap="round" x1="211.642" y1="-301.241" x2="211.642" y2="-280.78"/>
				<g id="connector1terminal_3_">
				</g>
				<g transform="matrix(1, 0, 0, 1, 13.7, 3.95001)">
					<g>
						<g transform="rotate(270)">
							<g>
								<text transform="matrix(1 0 0 1 292.9834 194.9559)" fill="#8C8C8C" font-family="'ArialMT'" font-size="7.1042">3</text>
							</g>
						</g>
					</g>
				</g>
			</g>
		</g>
	</g>
</g>
<g>
	<g transform="translate(164.421,91.2799)">
		<g transform="matrix(0,-1,1,0,0,0)">
			<g id="schematic_4_">
				
					<line fill="none" stroke="#000000" stroke-width="2" stroke-linecap="round" x1="-147.333" y1="311.609" x2="-144.264" y2="303.425"/>
				
					<line fill="none" stroke="#000000" stroke-width="2" stroke-linecap="round" x1="-144.264" y1="303.425" x2="-139.15" y2="319.794"/>
				
					<line fill="none" stroke="#000000" stroke-width="2" stroke-linecap="round" x1="-139.15" y1="319.794" x2="-134.031" y2="303.425"/>
				
					<line fill="none" stroke="#000000" stroke-width="2" stroke-linecap="round" x1="-134.031" y1="303.425" x2="-128.917" y2="319.794"/>
				
					<line fill="none" stroke="#000000" stroke-width="2" stroke-linecap="round" x1="-128.917" y1="319.794" x2="-123.803" y2="303.425"/>
				
					<line fill="none" stroke="#000000" stroke-width="2" stroke-linecap="round" x1="-123.803" y1="303.425" x2="-118.689" y2="319.794"/>
				
					<line fill="none" stroke="#000000" stroke-width="2" stroke-linecap="round" x1="-118.689" y1="319.794" x2="-113.571" y2="303.425"/>
				
					<line fill="none" stroke="#000000" stroke-width="2" stroke-linecap="round" x1="-113.571" y1="303.425" x2="-108.457" y2="319.794"/>
				
					<line fill="none" stroke="#000000" stroke-width="2" stroke-linecap="round" x1="-108.457" y1="319.794" x2="-106.411" y2="311.609"/>
				
					<line id="connector1pin_4_" fill="none" stroke="#787878" stroke-width="2" stroke-linecap="round" x1="-85.951" y1="311.609" x2="-106.411" y2="311.609"/>
				<g id="connector1terminal_4_">
				</g>
				<text transform="matrix(1 0 0 1 -98.1534 308.6227)" fill="#8C8C8C" font-family="'ArialMT'" font-size="7.1042">2</text>
				
					<line id="connector0pin_4_" fill="none" stroke="#787878" stroke-width="2" stroke-linecap="round" x1="-167.79" y1="311.609" x2="-147.333" y2="311.609"/>
				<g id="connector0terminal_4_">
				</g>
				<text transform="matrix(1 0 0 1 -159.5363 308.6227)" fill="#8C8C8C" font-family="'ArialMT'" font-size="7.1042">1</text>
			</g>
		</g>
	</g>
</g>
<g>
	<g transform="translate(90.4455,73.433)">
		<g id="schematic_5_">
			<path id="connector0pin_5_" fill="none" stroke="#787878" stroke-width="2" stroke-linecap="round" d="M187.034,157.443v-20.458"
				/>
			<g id="connector0terminal_5_">
			</g>
			<path id="path4098" fill="none" stroke="#000000" stroke-width="2" stroke-linecap="round" d="M167.994,157.831h38.077"/>
			<path id="path4100" fill="none" stroke="#000000" stroke-width="2" stroke-linecap="round" d="M174.335,165.632h25.392"/>
			<path id="path4102" fill="none" stroke="#000000" stroke-width="2" stroke-linecap="round" d="M193.373,173.358h-12.686"/>
		</g>
	</g>
</g>
<g>
	<g transform="translate(181.097,45.3269)">
		<g id="schematic_6_">
			<path id="connector0pin_6_" fill="none" stroke="#787878" stroke-width="2" stroke-linecap="round" d="M353.987,105.683V85.222"
				/>
			<g id="connector0terminal_6_">
			</g>
			<path id="path4098_1_" fill="none" stroke="#000000" stroke-width="2" stroke-linecap="round" d="M334.945,106.068h38.076"/>
			<path id="path4100_1_" fill="none" stroke="#000000" stroke-width="2" stroke-linecap="round" d="M341.286,113.869h25.392"/>
			<path id="path4102_1_" fill="none" stroke="#000000" stroke-width="2" stroke-linecap="round" d="M360.323,121.595h-12.685"/>
		</g>
	</g>
</g>
<g>
	<g transform="translate(121.687,114.838)">
		<g id="schematic_7_">
			<path id="connector0pin_7_" fill="none" stroke="#787878" stroke-width="2" stroke-linecap="round" d="M244.572,233.698v-20.46"
				/>
			<g id="connector0terminal_7_">
			</g>
			<path id="path4098_2_" fill="none" stroke="#000000" stroke-width="2" stroke-linecap="round" d="M225.53,234.084h38.076"/>
			<path id="path4100_2_" fill="none" stroke="#000000" stroke-width="2" stroke-linecap="round" d="M231.871,241.884h25.392"/>
			<path id="path4102_2_" fill="none" stroke="#000000" stroke-width="2" stroke-linecap="round" d="M250.908,249.613h-12.686"/>
		</g>
	</g>
</g>
<g>
	<g transform="translate(150.411,57.4027)">
		<g transform="matrix(-1,0,0,-1,0,0)">
			<g id="schematic_8_">
				
					<line fill="none" stroke="#000000" stroke-width="2" stroke-linecap="round" x1="-220.744" y1="-74.686" x2="-215.63" y2="-74.686"/>
				
					<line fill="none" stroke="#000000" stroke-width="2" stroke-linecap="round" x1="-256.548" y1="-74.686" x2="-220.744" y2="-84.914"/>
				<circle fill="none" stroke="#000000" stroke-width="2" cx="-256.548" cy="-74.684" r="1.023"/>
				<path fill="none" stroke="#000000" stroke-width="2" d="M-215.63-75.707c0.566,0,1.024,0.458,1.024,1.021
					c0,0.566-0.458,1.024-1.024,1.024c-0.562,0-1.021-0.458-1.021-1.024C-216.65-75.249-216.192-75.707-215.63-75.707z"/>
				<g transform="matrix(1, 0, 0, 1, 2.7612, 2.718)">
					<text transform="matrix(1 0 0 1 -271.9251 -101.3853)" fill="#787878" font-family="'ArialMT'" font-size="5.6834">1</text>
				</g>
				<g transform="matrix(1, 0, 0, 1, 24.604, 2.718)">
					<text transform="matrix(1 0 0 1 -231.6976 -101.3853)" fill="#787878" font-family="'ArialMT'" font-size="5.6834">2</text>
				</g>
				<g transform="matrix(1, 0, 0, 1, 2.7612, 16.843)">
					<text transform="matrix(1 0 0 1 -271.9251 -75.3717)" fill="#787878" font-family="'ArialMT'" font-size="5.6834">1</text>
				</g>
				<g transform="matrix(1, 0, 0, 1, 24.604, 16.843)">
					<text transform="matrix(1 0 0 1 -231.6976 -75.3717)" fill="#787878" font-family="'ArialMT'" font-size="5.6834">2</text>
				</g>
				
					<line fill="none" stroke="#000000" stroke-width="2" stroke-linecap="round" x1="-215.63" y1="-95.144" x2="-215.63" y2="-54.225"/>
				
					<line fill="none" stroke="#000000" stroke-width="2" stroke-linecap="round" x1="-256.548" y1="-95.144" x2="-256.548" y2="-54.225"/>
				
					<line id="connector3pin" fill="none" stroke="#555555" stroke-width="2" stroke-linecap="round" x1="-276.096" y1="-54.225" x2="-256.548" y2="-54.225"/>
				
					<line id="connector2pin_3_" fill="none" stroke="#555555" stroke-width="2" stroke-linecap="round" x1="-276.096" y1="-95.144" x2="-256.548" y2="-95.144"/>
				<g id="connector2terminal_3_">
				</g>
				<g id="connector3terminal">
				</g>
				
					<line id="connector1pin_5_" fill="none" stroke="#555555" stroke-width="2" stroke-linecap="round" x1="-196.159" y1="-54.225" x2="-215.63" y2="-54.225"/>
				<g id="connector1terminal_5_">
				</g>
				<g id="connector0terminal_8_">
				</g>
				
					<line id="connector0pin_8_" fill="none" stroke="#555555" stroke-width="2" stroke-linecap="round" x1="-196.159" y1="-95.144" x2="-215.63" y2="-95.144"/>
			</g>
		</g>
	</g>
</g>
<g>
	<g transform="translate(192.386,39.5025)">
		<g transform="matrix(-1,0,0,-1,0,0)">
			<g id="schematic_9_">
				
					<line fill="none" stroke="#000000" stroke-width="2" stroke-linecap="round" x1="-332.186" y1="-31.723" x2="-342.413" y2="-31.723"/>
				
					<line fill="none" stroke="#000000" stroke-width="2" stroke-linecap="round" x1="-342.413" y1="-31.723" x2="-352.647" y2="-31.723"/>
				<polygon fill="#FFFFFF" stroke="#000000" stroke-width="2" stroke-linecap="round" points="-342.413,-31.723 -352.647,-52.181 
					-342.413,-52.181 -332.186,-52.181 				"/>
				
					<line fill="none" stroke="#000000" stroke-width="2" stroke-linecap="round" x1="-342.413" y1="-52.181" x2="-342.413" y2="-31.723"/>
				
					<line id="connector0pin_9_" fill="none" stroke="#787878" stroke-width="2" stroke-linecap="round" x1="-342.413" y1="-11.265" x2="-342.413" y2="-31.723"/>
				<g id="connector0terminal_9_">
				</g>
				<g transform="matrix(1, 0, 0, 1, 3.429, 6.4262)">
					<g>
						<g transform="rotate(270)">
							<g>
								<g transform="matrix(1, 0, 0, 1, -12.6912, -0.1726)">
									<text transform="matrix(1 0 0 1 38.2191 -348.3105)" fill="#787878" font-family="'ArialMT'" font-size="5.6834">2</text>
								</g>
							</g>
						</g>
					</g>
				</g>
				
					<line id="connector1pin_6_" fill="none" stroke="#787878" stroke-width="2" stroke-linecap="round" x1="-342.413" y1="-72.645" x2="-342.413" y2="-52.181"/>
				<g id="connector1terminal_6_">
				</g>
				<g transform="matrix(1, 0, 0, 1, 3.429, 1.3462)">
					<g>
						<g transform="rotate(270)">
							<g>
								<g transform="matrix(1, 0, 0, 1, -3.3708, -0.1726)">
									<text transform="matrix(1 0 0 1 64.7386 -348.3105)" fill="#787878" font-family="'ArialMT'" font-size="5.6834">1</text>
								</g>
							</g>
						</g>
					</g>
				</g>
			</g>
		</g>
	</g>
</g>
<g>
	
		<line fill="none" stroke="#00A527" stroke-width="2" stroke-linecap="round" x1="347.126" y1="152.547" x2="426.232" y2="152.544"/>
</g>
<g>
	
		<line fill="none" stroke="#404040" stroke-width="2" stroke-linecap="round" x1="145.997" y1="111.888" x2="216.056" y2="112.375"/>
</g>
<g>
	
		<line fill="none" stroke="#404040" stroke-width="2" stroke-linecap="round" x1="146.443" y1="112.355" x2="145.997" y2="111.888"/>
</g>
<circle cx="146.443" cy="112.356" r="4.092"/>
<g>
	<line fill="none" stroke="#404040" stroke-width="2" stroke-linecap="round" x1="146.443" y1="173.21" x2="146.443" y2="132.416"/>
</g>
<g>
	<line fill="none" stroke="#404040" stroke-width="2" stroke-linecap="round" x1="276.298" y1="173.21" x2="146.443" y2="173.21"/>
</g>
<g>
	<line fill="none" stroke="#404040" stroke-width="2" stroke-linecap="round" x1="277.435" y1="173.757" x2="276.298" y2="173.21"/>
</g>
<circle cx="277.435" cy="173.755" r="4.092"/>
<g>
	
		<line fill="none" stroke="#404040" stroke-width="2" stroke-linecap="round" x1="277.435" y1="173.757" x2="277.479" y2="210.707"/>
</g>
<circle cx="277.435" cy="173.755" r="4.092"/>
<g>
	
		<line fill="none" stroke="#404040" stroke-width="2" stroke-linecap="round" x1="383.507" y1="303.433" x2="366.259" y2="303.433"/>
</g>
<g>
	
		<line fill="none" stroke="#404040" stroke-width="2" stroke-linecap="round" x1="366.259" y1="303.433" x2="366.259" y2="328.364"/>
</g>
<g>
	<line fill="none" stroke="#404040" stroke-width="2" stroke-linecap="round" x1="576" y1="18.025" x2="335.389" y2="18.025"/>
</g>
<circle cx="335.389" cy="18.026" r="4.092"/>
<g>
	<line fill="none" stroke="#404040" stroke-width="2" stroke-linecap="round" x1="576" y1="303.433" x2="576" y2="18.025"/>
</g>
<g>
	<line fill="none" stroke="#404040" stroke-width="2" stroke-linecap="round" x1="465.349" y1="303.433" x2="576" y2="303.433"/>
</g>
<g>
	<line fill="none" stroke="#404040" stroke-width="2" stroke-linecap="round" x1="256.841" y1="18.733" x2="146.443" y2="18.733"/>
</g>
<g>
	<line fill="none" stroke="#404040" stroke-width="2" stroke-linecap="round" x1="146.443" y1="18.733" x2="146.443" y2="112.355"/>
</g>
<circle cx="146.443" cy="112.356" r="4.092"/>
<g>
	<line fill="none" stroke="#404040" stroke-width="2" stroke-linecap="round" x1="254.512" y1="18.069" x2="256.841" y2="18.733"/>
</g>
<g>
	<line fill="none" stroke="#404040" stroke-width="2" stroke-linecap="round" x1="534.799" y1="18.025" x2="534.799" y2="50.765"/>
</g>
<g>
	<line fill="none" stroke="#404040" stroke-width="2" stroke-linecap="round" x1="335.389" y1="18.025" x2="534.799" y2="18.025"/>
</g>
<circle cx="335.389" cy="18.026" r="4.092"/>
<g>
	
		<line fill="none" stroke="#404040" stroke-width="2" stroke-linecap="round" x1="535.084" y1="130.837" x2="534.799" y2="112.147"/>
</g>
<g>
	<line fill="none" stroke="#404040" stroke-width="2" stroke-linecap="round" x1="476.03" y1="262.853" x2="476.03" y2="259.07"/>
</g>
<g>
	<line fill="none" stroke="#404040" stroke-width="2" stroke-linecap="round" x1="424.445" y1="262.853" x2="476.03" y2="262.853"/>
</g>
<g>
	
		<line fill="none" stroke="#404040" stroke-width="2" stroke-linecap="round" x1="424.428" y1="262.514" x2="424.445" y2="262.853"/>
</g>
<g>
	
		<line fill="none" stroke="#404040" stroke-width="2" stroke-linecap="round" x1="336.544" y1="112.052" x2="346.992" y2="111.676"/>
</g>
<g>
	
		<line fill="none" stroke="#404040" stroke-width="2" stroke-linecap="round" x1="338.817" y1="112.375" x2="336.544" y2="112.052"/>
</g>
<g>
	<line fill="none" stroke="#404040" stroke-width="2" stroke-linecap="round" x1="476.03" y1="111.587" x2="426.232" y2="111.587"/>
</g>
<g>
	<line fill="none" stroke="#404040" stroke-width="2" stroke-linecap="round" x1="476.03" y1="177.231" x2="476.03" y2="111.587"/>
</g>
<g id="partLabel">
	<g transform="translate(122.748,0.171605)">
		<g transform="matrix(1,0,0,1,0,0)">
			<g id="schematicLabel">
				<text transform="matrix(1 0 0 1 226.0613 11.6475)" font-family="'ArialMT'" font-size="14.2084">DC Motor</text>
			</g>
		</g>
	</g>
</g>
<g id="partLabel_1_">
	<g transform="translate(145.704,109.907)">
		<g id="schematicLabel_1_">
			<text transform="matrix(1 0 0 1 268.3397 213.7451)" font-family="'ArialMT'" font-size="14.2084">TIP 120 Transistor</text>
		</g>
	</g>
</g>
<g id="partLabel_2_">
	<g transform="translate(145.453,70.2326)">
		<g id="schematicLabel_2_">
			<text transform="matrix(1 0 0 1 267.8768 140.6763)" font-family="'ArialMT'" font-size="14.2084">Resistor</text>
			<text transform="matrix(1 0 0 1 267.8768 154.8843)" font-family="'ArialMT'" font-size="14.2084">1kΩ</text>
		</g>
	</g>
</g>
<g id="partLabel_3_">
	<g transform="translate(161.874,16.681)">
		<g id="schematicLabel_3_">
			<text transform="matrix(1 0 0 1 298.1189 42.0512)" font-family="'ArialMT'" font-size="14.2084">Diode</text>
			<text transform="matrix(1 0 0 1 298.1189 56.2592)" font-family="'ArialMT'" font-size="14.2084">1N4001</text>
		</g>
	</g>
</g>
<g id="partLabel_4_">
	<g transform="translate(129.611,57.4027)">
		<g transform="matrix(1,0,0,1,0,0)">
			<g id="schematicLabel_4_">
				<text transform="matrix(1 0 0 1 238.7032 117.0472)" font-family="'ArialMT'" font-size="14.2084">Switch</text>
			</g>
		</g>
	</g>
</g>
<g id="partLabel_5_">
	<g transform="translate(78.3398,23.8233)">
		<g id="schematicLabel_5_">
			<text transform="matrix(1 0 0 1 144.2761 55.2057)" font-family="'ArialMT'" font-size="14.2084">Voltage Regulator</text>
		</g>
	</g>
</g>
<g id="partLabel_6_">
	<g transform="translate(0,57.0435)">
		<g id="schematicLabel_6_">
			<text transform="matrix(1 0 0 1 6.866455e-04 116.3879)" font-family="'ArialMT'" font-size="14.2084">Power Plug</text>
		</g>
	</g>
</g>
</svg>
