<?xml version="1.0" encoding="utf-8"?>
<!-- Generator: Adobe Illustrator 16.0.0, SVG Export Plug-In . SVG Version: 6.00 Build 0)  -->
<!DOCTYPE svg PUBLIC "-//W3C//DTD SVG 1.1//EN" "http://www.w3.org/Graphics/SVG/1.1/DTD/svg11.dtd">
<svg version="1.1" id="Layer_1" xmlns:svg="http://www.w3.org/2000/svg"
	 xmlns="http://www.w3.org/2000/svg" xmlns:xlink="http://www.w3.org/1999/xlink" x="0px" y="0px" width="576.997px"
	 height="181.557px" viewBox="0.003 -0.538 576.997 181.557" enable-background="new 0.003 -0.538 576.997 181.557"
	 xml:space="preserve">
<g>
	<g transform="translate(69.6,1.16236)">
		<g transform="matrix(-1,0,0,1,0,0)">
			<g id="schematic">
				<polyline fill="none" stroke="#000000" stroke-width="2" stroke-linecap="round" stroke-linejoin="round" points="
					-191.933,62.945 -176.364,62.945 -164.861,74.384 -150.375,74.384 -131.239,61.464 				"/>
				<polyline fill="none" stroke="#000000" stroke-width="2" stroke-linecap="round" stroke-linejoin="round" points="
					-191.933,92.923 -172.503,92.923 -138.08,92.923 				"/>
				<polyline id="box_1_" fill="none" stroke="#000000" stroke-width="2" stroke-linecap="round" stroke-linejoin="round" points="
					-131.239,126.86 -191.933,126.86 -191.933,35.82 -131.239,35.82 				"/>
				<polygon points="-179.984,67.926 -186.282,76.562 -181.987,77.409 -187.373,87.893 -176.839,75.228 -181.32,74.083 				"/>
				<g id="connector2terminal">
				</g>
				<g id="connector1terminal">
				</g>
				<g id="connector0terminal">
				</g>
				
					<line id="connector2pin" fill="none" stroke="#787878" stroke-width="2" stroke-linecap="round" stroke-linejoin="round" x1="-191.933" y1="92.923" x2="-222.283" y2="92.923"/>
				
					<line id="connector0pin" fill="none" stroke="#787878" stroke-width="2" stroke-linecap="round" stroke-linejoin="round" x1="-191.933" y1="63.184" x2="-222.283" y2="63.184"/>
				
					<line id="connector1pin" fill="none" stroke="#787878" stroke-width="2" stroke-linecap="round" stroke-linejoin="round" x1="-191.933" y1="92.923" x2="-222.283" y2="92.923"/>
				<g transform="matrix(1, 0, 0, 1, 19.3843, 25.585)">
					<text transform="matrix(1 0 0 1 -161.4415 87.7256)" fill="#787878" font-family="'ArialMT'" font-size="18.967">-</text>
				</g>
				<g transform="matrix(1, 0, 0, 1, 18.5503, 12.1563)">
					<text transform="matrix(1 0 0 1 -164.1231 44.5546)" fill="#787878" font-family="'ArialMT'" font-size="18.967">+</text>
				</g>
			</g>
		</g>
	</g>
</g>
<g>
	<g transform="translate(93.1094,7.08476)">
		<g id="schematic_1_">
			<rect x="331.155" y="26.938" fill="#FFFFFF" width="121.392" height="91.044"/>
			<text id="label" transform="matrix(1 0 0 1 369.9443 62.9096)" font-family="'ArialMT'" font-size="17.9133">78XX</text>
			
				<line fill="none" stroke="#000000" stroke-width="2" stroke-linecap="round" x1="331.155" y1="117.982" x2="452.547" y2="117.982"/>
			
				<line fill="none" stroke="#000000" stroke-width="2" stroke-linecap="round" x1="452.547" y1="117.982" x2="452.547" y2="26.938"/>
			
				<line fill="none" stroke="#000000" stroke-width="2" stroke-linecap="round" x1="452.547" y1="26.938" x2="331.155" y2="26.938"/>
			
				<line fill="none" stroke="#000000" stroke-width="2" stroke-linecap="round" x1="331.155" y1="26.938" x2="331.155" y2="117.982"/>
			
				<line id="connector1pin_1_" fill="none" stroke="#787878" stroke-width="2" stroke-linecap="round" x1="300.811" y1="57.287" x2="331.155" y2="57.287"/>
			<g id="connector1terminal_1_">
			</g>
			<text transform="matrix(1 0 0 1 313.0556 52.8628)" fill="#8C8C8C" font-family="'ArialMT'" font-size="10.5372">2</text>
			<text transform="matrix(1 0 0 1 340.0107 60.2378)" fill="#787878" font-family="'ArialMT'" font-size="14.7521">IN</text>
			
				<line id="connector0pin_1_" fill="none" stroke="#787878" stroke-width="2" stroke-linecap="round" x1="391.852" y1="148.331" x2="391.852" y2="117.982"/>
			<g id="connector0terminal_1_">
			</g>
			<g transform="matrix(1, 0, 0, 1, 20.9001, 25.7759)">
				<g>
					<g transform="rotate(270)">
						<g>
							<text transform="matrix(1 0 0 1 -110.3056 366.5305)" fill="#8C8C8C" font-family="'ArialMT'" font-size="10.5372">1</text>
						</g>
					</g>
				</g>
			</g>
			<g transform="matrix(1, 0, 0, 1, 22.6501, 20.076)">
				<g>
					<g transform="rotate(270)">
						<g>
							<text transform="matrix(1 0 0 1 -89.0524 372.1575)" fill="#787878" font-family="'ArialMT'" font-size="14.7521">GND</text>
						</g>
					</g>
				</g>
			</g>
			
				<line id="connector2pin_1_" fill="none" stroke="#787878" stroke-width="2" stroke-linecap="round" x1="482.891" y1="57.287" x2="452.547" y2="57.287"/>
			<g id="connector2terminal_1_">
			</g>
			<text transform="matrix(1 0 0 1 464.7919 52.8628)" fill="#8C8C8C" font-family="'ArialMT'" font-size="10.5372">3</text>
			<text transform="matrix(1 0 0 1 412.5576 60.2378)" fill="#787878" font-family="'ArialMT'" font-size="14.7521">OUT</text>
		</g>
	</g>
</g>
<g>
	<line fill="none" stroke="#404040" stroke-width="2" stroke-linecap="round" x1="290.004" y1="63.651" x2="393.921" y2="64.371"/>
</g>
<g>
	<line fill="none" stroke="#404040" stroke-width="2" stroke-linecap="round" x1="290.669" y1="64.342" x2="290.004" y2="63.651"/>
</g>
<g>
	<line fill="none" stroke="#404040" stroke-width="2" stroke-linecap="round" x1="290.669" y1="154.604" x2="290.669" y2="94.098"/>
</g>
<g>
	
		<line fill="none" stroke="#404040" stroke-width="2" stroke-linecap="round" x1="483.273" y1="154.604" x2="290.669" y2="154.604"/>
</g>
<g>
	
		<line fill="none" stroke="#404040" stroke-width="2" stroke-linecap="round" x1="484.961" y1="155.415" x2="483.273" y2="154.604"/>
</g>
<g id="partLabel">
	<g transform="translate(110.293,0)">
		<g id="schematicLabel">
			<text transform="matrix(1 0 0 1 354.581 17.5432)" font-family="'ArialMT'" font-size="21.0744">IC2</text>
		</g>
	</g>
</g>
<g id="partLabel_1_">
	<g transform="translate(0,37.1624)">
		<g id="schematicLabel_1_">
			<text transform="matrix(1 0 0 1 0.0029 137.0136)" font-family="'ArialMT'" font-size="21.0744">Power plug1</text>
		</g>
	</g>
</g>
</svg>
