<?xml version="1.0" encoding="utf-8"?>
<!-- Generator: Adobe Illustrator 16.0.0, SVG Export Plug-In . SVG Version: 6.00 Build 0)  -->
<!DOCTYPE svg PUBLIC "-//W3C//DTD SVG 1.1//EN" "http://www.w3.org/Graphics/SVG/1.1/DTD/svg11.dtd">
<svg version="1.1" id="Layer_1" xmlns:svg="http://www.w3.org/2000/svg"
	 xmlns="http://www.w3.org/2000/svg" xmlns:xlink="http://www.w3.org/1999/xlink" x="0px" y="0px" width="576.414px"
	 height="497.292px" viewBox="0 0 576.414 497.292" enable-background="new 0 0 576.414 497.292" xml:space="preserve">
<g>
	<g transform="translate(95.8386,53.1944)">
		<g id="schematic">
			
				<rect x="110.003" y="73.834" fill="#FFFFFF" stroke="#000000" stroke-width="2" stroke-linecap="round" width="145.641" height="252.78"/>
			
				<line id="connector61pin" fill="none" stroke="#787878" stroke-width="2" stroke-linecap="round" x1="255.829" y1="99.781" x2="282.615" y2="99.781"/>
			<text transform="matrix(1 0 0 1 234.0511 101.0825)" fill="#8C8C8C" font-family="'ArialMT'" font-size="6.5101">D0/RX</text>
			<g id="connector61terminal">
			</g>
			
				<line id="connector62pin" fill="none" stroke="#787878" stroke-width="2" stroke-linecap="round" x1="255.829" y1="113.174" x2="282.615" y2="113.174"/>
			<text transform="matrix(1 0 0 1 234.7757 114.4741)" fill="#8C8C8C" font-family="'ArialMT'" font-size="6.5101">D1/TX</text>
			<g id="connector62terminal">
			</g>
			
				<line id="connector63pin" fill="none" stroke="#787878" stroke-width="2" stroke-linecap="round" x1="255.829" y1="126.567" x2="282.615" y2="126.567"/>
			<text transform="matrix(1 0 0 1 244.9036 127.8676)" fill="#8C8C8C" font-family="'ArialMT'" font-size="6.5101">D2</text>
			<g id="connector63terminal">
			</g>
			
				<line id="connector64pin" fill="none" stroke="#787878" stroke-width="2" stroke-linecap="round" x1="255.829" y1="139.957" x2="282.615" y2="139.957"/>
			<text transform="matrix(1 0 0 1 227.1848 141.2582)" fill="#8C8C8C" font-family="'ArialMT'" font-size="6.5101">D3 PWM</text>
			<g id="connector64terminal">
			</g>
			
				<line id="connector65pin" fill="none" stroke="#787878" stroke-width="2" stroke-linecap="round" x1="255.829" y1="153.35" x2="282.615" y2="153.35"/>
			<text transform="matrix(1 0 0 1 244.9036 154.6508)" fill="#8C8C8C" font-family="'ArialMT'" font-size="6.5101">D4</text>
			<g id="connector65terminal">
			</g>
			
				<line id="connector66pin" fill="none" stroke="#787878" stroke-width="2" stroke-linecap="round" x1="255.829" y1="166.742" x2="282.615" y2="166.742"/>
			<text transform="matrix(1 0 0 1 227.1848 168.0434)" fill="#8C8C8C" font-family="'ArialMT'" font-size="6.5101">D5 PWM</text>
			<g id="connector66terminal">
			</g>
			
				<line id="connector67pin" fill="none" stroke="#787878" stroke-width="2" stroke-linecap="round" x1="255.829" y1="180.135" x2="282.615" y2="180.135"/>
			<text transform="matrix(1 0 0 1 227.1848 181.437)" fill="#8C8C8C" font-family="'ArialMT'" font-size="6.5101">D6 PWM</text>
			<g id="connector67terminal">
			</g>
			
				<line id="connector68pin" fill="none" stroke="#787878" stroke-width="2" stroke-linecap="round" x1="255.829" y1="193.528" x2="282.615" y2="193.528"/>
			<text transform="matrix(1 0 0 1 244.9036 194.8286)" fill="#8C8C8C" font-family="'ArialMT'" font-size="6.5101">D7</text>
			<g id="connector68terminal">
			</g>
			
				<line id="connector51pin" fill="none" stroke="#787878" stroke-width="2" stroke-linecap="round" x1="255.829" y1="206.918" x2="282.615" y2="206.918"/>
			<text transform="matrix(1 0 0 1 244.9036 208.2192)" fill="#8C8C8C" font-family="'ArialMT'" font-size="6.5101">D8</text>
			<g id="connector51terminal">
			</g>
			
				<line id="connector52pin" fill="none" stroke="#787878" stroke-width="2" stroke-linecap="round" x1="255.829" y1="220.311" x2="282.615" y2="220.311"/>
			<text transform="matrix(1 0 0 1 227.1848 221.6137)" fill="#8C8C8C" font-family="'ArialMT'" font-size="6.5101">D9 PWM</text>
			<g id="connector52terminal">
			</g>
			
				<line id="connector53pin" fill="none" stroke="#787878" stroke-width="2" stroke-linecap="round" x1="255.829" y1="233.704" x2="282.615" y2="233.704"/>
			<text transform="matrix(1 0 0 1 213.0716 235.0043)" fill="#8C8C8C" font-family="'ArialMT'" font-size="6.5101">D10 PWM/SS</text>
			<g id="connector53terminal">
			</g>
			
				<line id="connector54pin" fill="none" stroke="#787878" stroke-width="2" stroke-linecap="round" x1="255.829" y1="247.096" x2="282.615" y2="247.096"/>
			<text transform="matrix(1 0 0 1 205.6018 248.3969)" fill="#8C8C8C" font-family="'ArialMT'" font-size="6.5101">D11 PWM/MOSI</text>
			<g id="connector54terminal">
			</g>
			
				<line id="connector55pin" fill="none" stroke="#787878" stroke-width="2" stroke-linecap="round" x1="255.829" y1="260.489" x2="282.615" y2="260.489"/>
			<text transform="matrix(1 0 0 1 222.8362 261.7895)" fill="#8C8C8C" font-family="'ArialMT'" font-size="6.5101">D12/MISO</text>
			<g id="connector55terminal">
			</g>
			<line id="connector41pin" fill="none" x1="255.829" y1="273.879" x2="282.615" y2="273.879"/>
			<rect id="connector41terminal" x="282.615" y="273.23" fill="none" width="1.303" height="1.302"/>
			
				<line id="connector56pin" fill="none" stroke="#787878" stroke-width="2" stroke-linecap="round" x1="255.829" y1="273.879" x2="282.615" y2="273.879"/>
			<text transform="matrix(1 0 0 1 226.0882 275.1821)" fill="#8C8C8C" font-family="'ArialMT'" font-size="6.5101">D13/SCK</text>
			<g id="connector56terminal">
			</g>
			<line id="connector43pin" fill="none" x1="83.033" y1="99.781" x2="109.818" y2="99.781"/>
			<rect id="connector43terminal" x="81.732" y="99.131" fill="none" width="1.302" height="1.301"/>
			
				<line id="connector85pin" fill="none" stroke="#787878" stroke-width="2" stroke-linecap="round" x1="83.033" y1="99.781" x2="109.818" y2="99.781"/>
			<text transform="matrix(1 0 0 1 112.4221 101.0825)" fill="#8C8C8C" font-family="'ArialMT'" font-size="6.5101">RESET</text>
			<g id="connector85terminal">
			</g>
			
				<line id="connector49pin" fill="none" stroke="#787878" stroke-width="2" stroke-linecap="round" x1="83.033" y1="113.174" x2="109.818" y2="113.174"/>
			<text transform="matrix(1 0 0 1 112.4221 114.4741)" fill="#8C8C8C" font-family="'ArialMT'" font-size="6.5101">RESET2</text>
			<rect id="connector49terminal" x="81.732" y="112.522" fill="none" width="1.302" height="1.303"/>
			
				<line id="connector58pin" fill="none" stroke="#787878" stroke-width="2" stroke-linecap="round" x1="83.033" y1="126.567" x2="109.818" y2="126.567"/>
			<text transform="matrix(1 0 0 1 112.4221 127.8676)" fill="#8C8C8C" font-family="'ArialMT'" font-size="6.5101">AREF</text>
			<g id="connector58terminal">
			</g>
			
				<line id="connector84pin" fill="none" stroke="#787878" stroke-width="2" stroke-linecap="round" x1="83.033" y1="139.957" x2="109.818" y2="139.957"/>
			<text transform="matrix(1 0 0 1 112.4221 141.2582)" fill="#8C8C8C" font-family="'ArialMT'" font-size="6.5101">ioref</text>
			<g id="connector84terminal">
			</g>
			
				<line id="connector0pin" fill="none" stroke="#787878" stroke-width="2" stroke-linecap="round" x1="83.033" y1="166.742" x2="109.818" y2="166.742"/>
			<text transform="matrix(1 0 0 1 112.4221 168.0434)" fill="#8C8C8C" font-family="'ArialMT'" font-size="6.5101">A0</text>
			<g id="connector0terminal">
			</g>
			
				<line id="connector1pin" fill="none" stroke="#787878" stroke-width="2" stroke-linecap="round" x1="83.033" y1="180.135" x2="109.818" y2="180.135"/>
			<text transform="matrix(1 0 0 1 112.4221 181.437)" fill="#8C8C8C" font-family="'ArialMT'" font-size="6.5101">A1</text>
			<g id="connector1terminal">
			</g>
			
				<line id="connector2pin" fill="none" stroke="#787878" stroke-width="2" stroke-linecap="round" x1="83.033" y1="193.528" x2="109.818" y2="193.528"/>
			<text transform="matrix(1 0 0 1 112.4221 194.8286)" fill="#8C8C8C" font-family="'ArialMT'" font-size="6.5101">A2</text>
			<g id="connector2terminal">
			</g>
			
				<line id="connector3pin" fill="none" stroke="#787878" stroke-width="2" stroke-linecap="round" x1="83.033" y1="206.918" x2="109.818" y2="206.918"/>
			<text transform="matrix(1 0 0 1 112.4221 208.2192)" fill="#8C8C8C" font-family="'ArialMT'" font-size="6.5101">A3</text>
			<g id="connector3terminal">
			</g>
			<line id="connector48pin" fill="none" x1="83.033" y1="220.311" x2="109.818" y2="220.311"/>
			<rect id="connector48terminal" x="81.732" y="219.661" fill="none" width="1.302" height="1.303"/>
			<line id="connector45pin" fill="none" x1="83.033" y1="220.311" x2="109.818" y2="220.311"/>
			<rect id="connector45terminal" x="81.732" y="219.661" fill="none" width="1.302" height="1.303"/>
			<line id="connector4pin" fill="none" x1="83.033" y1="220.311" x2="109.818" y2="220.311"/>
			<g id="connector4terminal">
			</g>
			<line id="connector39pin" fill="none" x1="83.033" y1="220.311" x2="109.818" y2="220.311"/>
			<rect id="connector39terminal" x="81.732" y="219.661" fill="none" width="1.302" height="1.303"/>
			<line id="connector47pin" fill="none" x1="83.033" y1="220.311" x2="109.818" y2="220.311"/>
			<rect id="connector47terminal" x="81.732" y="219.661" fill="none" width="1.302" height="1.303"/>
			<line id="connector42pin" fill="none" x1="83.033" y1="220.311" x2="109.818" y2="220.311"/>
			<rect id="connector42terminal" x="81.732" y="219.661" fill="none" width="1.302" height="1.303"/>
			
				<line id="connector59pin" fill="none" stroke="#787878" stroke-width="2" stroke-linecap="round" x1="83.033" y1="220.311" x2="109.818" y2="220.311"/>
			<text transform="matrix(1 0 0 1 112.4221 221.6137)" fill="#8C8C8C" font-family="'ArialMT'" font-size="6.5101">A4/SDA</text>
			<g id="connector59terminal">
			</g>
			<line id="connector5pin" fill="none" x1="83.033" y1="233.704" x2="109.818" y2="233.704"/>
			<g id="connector5terminal">
			</g>
			
				<line id="connector60pin" fill="none" stroke="#787878" stroke-width="2" stroke-linecap="round" x1="83.033" y1="233.704" x2="109.818" y2="233.704"/>
			<text transform="matrix(1 0 0 1 112.4221 235.0043)" fill="#8C8C8C" font-family="'ArialMT'" font-size="6.5101">A5/SCL</text>
			<g id="connector60terminal">
			</g>
			
				<line id="connector91pin" fill="none" stroke="#787878" stroke-width="2" stroke-linecap="round" x1="83.033" y1="300.664" x2="109.818" y2="300.664"/>
			<text transform="matrix(1 0 0 1 112.4221 301.9653)" fill="#8C8C8C" font-family="'ArialMT'" font-size="6.5101">N/C</text>
			<g id="connector91terminal">
			</g>
			<line id="connector88pin" fill="none" x1="189.52" y1="326.797" x2="189.52" y2="353.582"/>
			<g id="connector88terminal">
			</g>
			<line id="connector57pin" fill="none" x1="189.52" y1="326.797" x2="189.52" y2="353.582"/>
			<g id="connector57terminal">
			</g>
			<line id="connector44pin" fill="none" x1="189.52" y1="326.797" x2="189.52" y2="353.582"/>
			<rect id="connector44terminal" x="188.868" y="353.582" fill="none" width="1.303" height="1.303"/>
			<line id="connector50pin" fill="none" x1="189.52" y1="326.797" x2="189.52" y2="353.582"/>
			<rect id="connector50terminal" x="188.868" y="353.582" fill="none" width="1.303" height="1.303"/>
			
				<line id="connector89pin" fill="none" stroke="#787878" stroke-width="2" stroke-linecap="round" x1="189.52" y1="326.797" x2="189.52" y2="353.582"/>
			<g transform="matrix(1, 0, 0, 1, 58.2999, 149.45)">
				<g>
					<g transform="rotate(270)">
						<g>
							<text transform="matrix(1 0 0 1 -174.7418 132.5207)" fill="#8C8C8C" font-family="'ArialMT'" font-size="6.5101">GND</text>
						</g>
					</g>
				</g>
			</g>
			<g id="connector89terminal">
			</g>
			
				<line id="connector86pin" fill="none" stroke="#787878" stroke-width="2" stroke-linecap="round" x1="149.343" y1="46.863" x2="149.343" y2="73.649"/>
			<g transform="matrix(1, 0, 0, 1, 36.6999, 16.15)">
				<g>
					<g transform="rotate(270)">
						<g>
							<text transform="matrix(1 0 0 1 -71.6863 113.9449)" fill="#8C8C8C" font-family="'ArialMT'" font-size="6.5101">3V3</text>
						</g>
					</g>
				</g>
			</g>
			<g id="connector86terminal">
			</g>
			<line id="connector40pin" fill="none" x1="176.128" y1="46.863" x2="176.128" y2="73.649"/>
			<rect id="connector40terminal" x="175.477" y="45.561" fill="none" width="1.302" height="1.302"/>
			<line id="connector46pin" fill="none" x1="176.128" y1="46.863" x2="176.128" y2="73.649"/>
			<rect id="connector46terminal" x="175.477" y="45.561" fill="none" width="1.302" height="1.302"/>
			
				<line id="connector87pin" fill="none" stroke="#787878" stroke-width="2" stroke-linecap="round" x1="176.128" y1="46.863" x2="176.128" y2="73.649"/>
			<g transform="matrix(1, 0, 0, 1, 51.0999, 16.15)">
				<g>
					<g transform="rotate(270)">
						<g>
							<text transform="matrix(1 0 0 1 -68.0633 126.33)" fill="#8C8C8C" font-family="'ArialMT'" font-size="6.5101">5V</text>
						</g>
					</g>
				</g>
			</g>
			<g id="connector87terminal">
			</g>
			
				<line id="connector90pin" fill="none" stroke="#787878" stroke-width="2" stroke-linecap="round" x1="202.913" y1="46.863" x2="202.913" y2="73.649"/>
			<g transform="matrix(1, 0, 0, 1, 65.4999, 16.15)">
				<g>
					<g transform="rotate(270)">
						<g>
							<text transform="matrix(1 0 0 1 -70.952 138.7133)" fill="#8C8C8C" font-family="'ArialMT'" font-size="6.5101">VIN</text>
						</g>
					</g>
				</g>
			</g>
			<g id="connector90terminal">
			</g>
			<text id="label" transform="matrix(1 0 0 1 170.0374 188.4116)" font-family="'ArialMT'" font-size="7.9051">Arduino</text>
			<text id="label_1_" transform="matrix(1 0 0 1 176.4104 196.8442)" font-family="'ArialMT'" font-size="7.9051">Uno</text>
			<text id="label_2_" transform="matrix(1 0 0 1 171.8011 205.2758)" font-family="'ArialMT'" font-size="7.9051">(Rev3)</text>
		</g>
	</g>
</g>
<g>
	<g transform="translate(270.604,34.5712)">
		<g transform="matrix(0,-1,-1,0,0,0)">
			<g id="schematic_1_">
				<polyline fill="none" stroke="#000000" stroke-width="2" stroke-linecap="round" stroke-linejoin="round" points="
					-16.154,-207.321 -9.283,-207.321 -4.206,-202.275 2.186,-202.275 10.631,-207.976 				"/>
				<polyline fill="none" stroke="#000000" stroke-width="2" stroke-linecap="round" stroke-linejoin="round" points="
					-16.154,-194.093 -7.579,-194.093 7.612,-194.093 				"/>
				<polyline id="box_1_" fill="none" stroke="#000000" stroke-width="2" stroke-linecap="round" stroke-linejoin="round" points="
					10.631,-179.117 -16.154,-179.117 -16.154,-219.293 10.631,-219.293 				"/>
				<polygon points="-10.879,-205.126 -13.659,-201.314 -11.764,-200.941 -14.141,-196.313 -9.493,-201.902 -11.47,-202.409 				"/>
				<g id="connector2terminal_1_">
				</g>
				<g id="connector1terminal_1_">
				</g>
				<g id="connector0terminal_1_">
				</g>
				
					<line id="connector2pin_1_" fill="none" stroke="#787878" stroke-width="2" stroke-linecap="round" stroke-linejoin="round" x1="-16.154" y1="-194.093" x2="-29.545" y2="-194.093"/>
				
					<line id="connector0pin_1_" fill="none" stroke="#787878" stroke-width="2" stroke-linecap="round" stroke-linejoin="round" x1="-16.154" y1="-207.219" x2="-29.545" y2="-207.219"/>
				
					<line id="connector1pin_1_" fill="none" stroke="#787878" stroke-width="2" stroke-linecap="round" stroke-linejoin="round" x1="-16.154" y1="-194.093" x2="-29.545" y2="-194.093"/>
				<g transform="matrix(1, 0, 0, 1, 19.3843, 25.585)">
					<text transform="matrix(1 0 0 1 -13.5255 -210.6802)" fill="#787878" font-family="'ArialMT'" font-size="8.3701">-</text>
				</g>
				<g transform="matrix(1, 0, 0, 1, 18.5503, 12.1563)">
					<text transform="matrix(1 0 0 1 -14.2422 -222.23)" fill="#787878" font-family="'ArialMT'" font-size="8.3701">+</text>
				</g>
			</g>
		</g>
	</g>
</g>
<g>
	<g transform="translate(0,95.5919)">
		<g id="schematic_2_">
			<line fill="none" stroke="#000000" stroke-width="2" stroke-linecap="round" x1="5.984" y1="150.289" x2="5.984" y2="147.61"/>
			<line fill="none" stroke="#000000" stroke-width="2" stroke-linecap="round" x1="5.984" y1="147.61" x2="0.628" y2="143.592"/>
			<line fill="none" stroke="#000000" stroke-width="2" stroke-linecap="round" x1="0.628" y1="143.592" x2="12.681" y2="136.897"/>
			<line fill="none" stroke="#000000" stroke-width="2" stroke-linecap="round" x1="12.681" y1="136.897" x2="0.628" y2="130.199"/>
			<line fill="none" stroke="#000000" stroke-width="2" stroke-linecap="round" x1="0.628" y1="130.199" x2="12.681" y2="123.504"/>
			<line fill="none" stroke="#000000" stroke-width="2" stroke-linecap="round" x1="12.681" y1="123.504" x2="0.628" y2="116.807"/>
			<line fill="none" stroke="#000000" stroke-width="2" stroke-linecap="round" x1="0.628" y1="116.807" x2="12.681" y2="110.112"/>
			<line fill="none" stroke="#000000" stroke-width="2" stroke-linecap="round" x1="12.681" y1="110.112" x2="0.628" y2="103.416"/>
			<line fill="none" stroke="#000000" stroke-width="2" stroke-linecap="round" x1="0.628" y1="103.416" x2="5.984" y2="99.399"/>
			<line fill="none" stroke="#000000" stroke-width="2" stroke-linecap="round" x1="5.984" y1="99.399" x2="5.984" y2="96.719"/>
			
				<line fill="none" stroke="#000000" stroke-width="2" stroke-linecap="round" x1="12.681" y1="123.504" x2="19.377" y2="116.807"/>
			
				<line fill="none" stroke="#000000" stroke-width="2" stroke-linecap="round" x1="19.377" y1="130.199" x2="12.681" y2="123.504"/>
			
				<line fill="none" stroke="#000000" stroke-width="2" stroke-linecap="round" x1="19.377" y1="116.807" x2="19.377" y2="130.199"/>
			<line fill="none" stroke="#000000" stroke-width="2" stroke-linecap="round" x1="16.699" y1="148.28" x2="16.699" y2="134.888"/>
			
				<line fill="none" stroke="#000000" stroke-width="2" stroke-linecap="round" x1="16.699" y1="134.888" x2="20.046" y2="141.583"/>
			
				<line fill="none" stroke="#000000" stroke-width="2" stroke-linecap="round" x1="20.046" y1="141.583" x2="13.351" y2="141.583"/>
			
				<line fill="none" stroke="#000000" stroke-width="2" stroke-linecap="round" x1="13.351" y1="141.583" x2="16.699" y2="134.888"/>
			
				<line id="connector2pin_2_" fill="none" stroke="#787878" stroke-width="2" stroke-linecap="round" x1="5.984" y1="163.68" x2="5.984" y2="150.289"/>
			<g id="connector2terminal_2_">
			</g>
			<g transform="matrix(1, 0, 0, 1, 2.19, 39.9502)">
				<g>
					<g transform="rotate(270)">
						<g>
							<text transform="matrix(1 0 0 1 -118.3246 1.8422)" fill="#8C8C8C" font-family="'ArialMT'" font-size="4.6501">3</text>
						</g>
					</g>
				</g>
			</g>
			
				<line id="connector0pin_2_" fill="none" stroke="#787878" stroke-width="2" stroke-linecap="round" x1="5.984" y1="83.326" x2="5.984" y2="96.719"/>
			<g id="connector0terminal_2_">
			</g>
			<g transform="matrix(1, 0, 0, 1, 2.19, 3.95)">
				<g>
					<g transform="rotate(270)">
						<g>
							<text transform="matrix(1 0 0 1 -87.3638 1.8422)" fill="#8C8C8C" font-family="'ArialMT'" font-size="4.6501">1</text>
						</g>
					</g>
				</g>
			</g>
			
				<line id="connector1pin_2_" fill="none" stroke="#787878" stroke-width="2" stroke-linecap="round" x1="32.77" y1="123.504" x2="19.377" y2="123.504"/>
			<g id="connector1terminal_2_">
			</g>
			<text transform="matrix(1 0 0 1 24.7798 121.5502)" fill="#8C8C8C" font-family="'ArialMT'" font-size="4.6501">2</text>
		</g>
	</g>
</g>
<g>
	<g transform="translate(281.221,170.888)">
		<g transform="matrix(0,1,-1,0,0,0)">
			<g id="schematic_3_">
				
					<line fill="none" stroke="#000000" stroke-width="2" stroke-linecap="round" x1="174.867" y1="-227.772" x2="164.154" y2="-222.417"/>
				
					<line fill="none" stroke="#000000" stroke-width="2" stroke-linecap="round" x1="170.85" y1="-206.345" x2="174.867" y2="-200.989"/>
				
					<line fill="none" stroke="#000000" stroke-width="2" stroke-linecap="round" x1="174.867" y1="-200.989" x2="168.173" y2="-200.989"/>
				
					<line fill="none" stroke="#000000" stroke-width="2" stroke-linecap="round" x1="168.173" y1="-200.989" x2="170.85" y2="-206.345"/>
				
					<line fill="none" stroke="#000000" stroke-width="2" stroke-linecap="round" x1="169.595" y1="-203.625" x2="163.1" y2="-206.872"/>
				
					<line fill="none" stroke="#000000" stroke-width="2" stroke-linecap="round" x1="169.512" y1="-201.659" x2="173.529" y2="-201.659"/>
				
					<line fill="none" stroke="#000000" stroke-width="2" stroke-linecap="round" x1="173.529" y1="-201.659" x2="170.85" y2="-205.005"/>
				
					<line fill="none" stroke="#000000" stroke-width="2" stroke-linecap="round" x1="170.85" y1="-205.005" x2="169.512" y2="-202.328"/>
				
					<line fill="none" stroke="#000000" stroke-width="2" stroke-linecap="round" x1="169.512" y1="-202.328" x2="171.522" y2="-202.328"/>
				
					<line fill="none" stroke="#000000" stroke-width="2" stroke-linecap="round" x1="171.522" y1="-202.328" x2="170.85" y2="-203.668"/>
				
					<rect x="148.752" y="-216.39" transform="matrix(2.578893e-06 1 -1 2.578893e-06 -52.2377 -376.5223)" width="26.782" height="4.02"/>
				
					<line id="connector0pin_3_" fill="none" stroke="#787878" stroke-width="2" stroke-linecap="round" x1="148.083" y1="-214.383" x2="161.477" y2="-214.383"/>
				<g id="connector0terminal_3_">
				</g>
				<text transform="matrix(1 0 0 1 153.4865 -216.3278)" fill="#8C8C8C" font-family="'ArialMT'" font-size="4.6501">1</text>
				
					<line id="connector2pin_3_" fill="none" stroke="#787878" stroke-width="2" stroke-linecap="round" x1="174.867" y1="-187.596" x2="174.867" y2="-200.989"/>
				<g id="connector2terminal_3_">
				</g>
				<g transform="matrix(1, 0, 0, 1, 13.7, 25.5501)">
					<g>
						<g transform="rotate(270)">
							<g>
								<text transform="matrix(1 0 0 1 218.5488 159.2133)" fill="#8C8C8C" font-family="'ArialMT'" font-size="4.6501">2</text>
							</g>
						</g>
					</g>
				</g>
				
					<line id="connector1pin_3_" fill="none" stroke="#787878" stroke-width="2" stroke-linecap="round" x1="174.867" y1="-241.167" x2="174.867" y2="-227.772"/>
				<g id="connector1terminal_3_">
				</g>
				<g transform="matrix(1, 0, 0, 1, 13.7, 3.95001)">
					<g>
						<g transform="rotate(270)">
							<g>
								<text transform="matrix(1 0 0 1 237.1245 159.2133)" fill="#8C8C8C" font-family="'ArialMT'" font-size="4.6501">3</text>
							</g>
						</g>
					</g>
				</g>
			</g>
		</g>
	</g>
</g>
<g>
	<g transform="translate(295.936,104.128)">
		<g id="schematic_4_">
			<path fill="#FFFFFF" stroke="#000000" stroke-width="2" d="M276.569,117.453c0-4.036-2.229-7.55-5.531-9.375h1.515V97.365h-6.695
				h-6.697v10.713h1.516c-3.297,1.825-5.531,5.339-5.531,9.375s2.234,7.549,5.531,9.374h-1.516v10.715h6.697h6.695v-10.715h-1.515
				C274.335,125.002,276.569,121.49,276.569,117.453z"/>
			<g transform="matrix(1, 0, 0, 1, 4.3203, 16.2754)">
				<text id="label_3_" transform="matrix(1 0 0 1 258.1861 104.0141)" font-family="'ArialMT'" font-size="7.9051">M</text>
			</g>
			
				<line fill="none" stroke="#000000" stroke-width="2" stroke-linecap="round" x1="259.158" y1="97.365" x2="259.158" y2="108.078"/>
			
				<line fill="none" stroke="#000000" stroke-width="2" stroke-linecap="round" x1="259.158" y1="97.365" x2="265.855" y2="97.365"/>
			<line fill="none" stroke="#000000" stroke-width="2" stroke-linecap="round" x1="265.855" y1="97.365" x2="272.55" y2="97.365"/>
			<line fill="none" stroke="#000000" stroke-width="2" stroke-linecap="round" x1="272.55" y1="97.365" x2="272.55" y2="108.078"/>
			
				<line fill="none" stroke="#000000" stroke-width="2" stroke-linecap="round" x1="272.55" y1="137.542" x2="272.55" y2="126.827"/>
			
				<line fill="none" stroke="#000000" stroke-width="2" stroke-linecap="round" x1="272.55" y1="137.542" x2="265.855" y2="137.542"/>
			
				<line fill="none" stroke="#000000" stroke-width="2" stroke-linecap="round" x1="265.855" y1="137.542" x2="259.158" y2="137.542"/>
			
				<line fill="none" stroke="#000000" stroke-width="2" stroke-linecap="round" x1="259.158" y1="137.542" x2="259.158" y2="126.827"/>
			
				<line id="connector0pin_4_" fill="none" stroke="#8C8C8C" stroke-width="2" stroke-linecap="round" stroke-miterlimit="10" x1="265.855" y1="90.668" x2="265.855" y2="97.365"/>
			
				<line id="connector1pin_4_" fill="none" stroke="#8C8C8C" stroke-width="2" stroke-linecap="round" stroke-miterlimit="10" x1="265.855" y1="144.237" x2="265.855" y2="137.542"/>
			<circle fill="none" stroke="#000000" stroke-width="2" cx="265.855" cy="117.453" r="10.713"/>
			<g id="connector0terminal_4_">
			</g>
			<g transform="matrix(1, 0, 0, 1, 7.2441, 2.6348)">
				<text transform="matrix(1 0 0 1 260.7017 92.2836)" fill="#8C8C8C" font-family="'ArialMT'" font-size="4.6501">1</text>
			</g>
			<g transform="matrix(1, 0, 0, 1, 2.40594, 0.864304)">
				<g>
					<g transform="rotate(270)">
						<g>
							<g transform="matrix(0, 1, -1, 0, -6.5263, 2.7464)">
								<text transform="matrix(1 0 0 1 258.9029 96.3735)" fill="#787878" font-family="'ArialMT'" font-size="6.5101">+</text>
							</g>
						</g>
					</g>
				</g>
			</g>
			<g id="connector1terminal_4_">
			</g>
			<g transform="matrix(1, 0, 0, 1, 7.2441, 28.5156)">
				<text transform="matrix(1 0 0 1 260.7017 114.5405)" fill="#8C8C8C" font-family="'ArialMT'" font-size="4.6501">2</text>
			</g>
			<g transform="matrix(1, 0, 0, 1, 2.40594, 11.0243)">
				<g>
					<g transform="rotate(270)">
						<g>
							<g transform="matrix(0, 1, -1, 0, -13.1007, 3.0257)">
								<text transform="matrix(1 0 0 1 259.1431 110.7641)" fill="#787878" font-family="'ArialMT'" font-size="6.5101">-</text>
							</g>
						</g>
					</g>
				</g>
			</g>
		</g>
	</g>
</g>
<g>
	<g transform="translate(146.737,241.238)">
		<g id="schematic_5_">
			<path id="connector0pin_5_" fill="none" stroke="#787878" stroke-width="2" stroke-linecap="round" d="M139.55,222.025v-13.391"
				/>
			<g id="connector0terminal_5_">
			</g>
			<path id="path4098" fill="none" stroke="#000000" stroke-width="2" stroke-linecap="round" d="M127.086,222.279h24.925"/>
			<path id="path4100" fill="none" stroke="#000000" stroke-width="2" stroke-linecap="round" d="M131.238,227.383h16.619"/>
			<path id="path4102" fill="none" stroke="#000000" stroke-width="2" stroke-linecap="round" d="M143.699,232.441h-8.304"/>
		</g>
	</g>
</g>
<g>
	<g transform="translate(242.737,65.7712)">
		<g id="schematic_6_">
			<path id="connector0pin_6_" fill="none" stroke="#787878" stroke-width="2" stroke-linecap="round" d="M222.113,71.119V57.726"/>
			<g id="connector0terminal_6_">
			</g>
			<path id="path4098_1_" fill="none" stroke="#000000" stroke-width="2" stroke-linecap="round" d="M209.649,71.373h24.925"/>
			<path id="path4100_1_" fill="none" stroke="#000000" stroke-width="2" stroke-linecap="round" d="M213.801,76.477h16.618"/>
			<path id="path4102_1_" fill="none" stroke="#000000" stroke-width="2" stroke-linecap="round" d="M226.262,81.536h-8.305"/>
		</g>
	</g>
</g>
<g>
	<g transform="translate(245.404,253.105)">
		<g id="schematic_7_">
			<path id="connector0pin_7_" fill="none" stroke="#787878" stroke-width="2" stroke-linecap="round" d="M224.407,232.23v-13.393"
				/>
			<g id="connector0terminal_7_">
			</g>
			<path id="path4098_2_" fill="none" stroke="#000000" stroke-width="2" stroke-linecap="round" d="M211.943,232.482h24.927"/>
			<path id="path4100_2_" fill="none" stroke="#000000" stroke-width="2" stroke-linecap="round" d="M216.093,237.59h16.62"/>
			<path id="path4102_2_" fill="none" stroke="#000000" stroke-width="2" stroke-linecap="round" d="M228.554,242.646h-8.302"/>
		</g>
	</g>
</g>
<g>
	<g transform="translate(285.378,239.523)">
		<g transform="matrix(-1,0,0,-1,0,0)">
			<g id="schematic_8_">
				
					<line fill="none" stroke="#000000" stroke-width="2" stroke-linecap="round" x1="-230.906" y1="-179.16" x2="-237.602" y2="-179.16"/>
				
					<line fill="none" stroke="#000000" stroke-width="2" stroke-linecap="round" x1="-237.602" y1="-179.16" x2="-244.301" y2="-179.16"/>
				<polygon fill="#FFFFFF" stroke="#000000" stroke-width="2" stroke-linecap="round" points="-237.602,-179.16 -244.301,-192.553 
					-237.602,-192.553 -230.906,-192.553 				"/>
				
					<line fill="none" stroke="#000000" stroke-width="2" stroke-linecap="round" x1="-237.602" y1="-192.553" x2="-237.602" y2="-179.16"/>
				
					<line id="connector0pin_8_" fill="none" stroke="#787878" stroke-width="2" stroke-linecap="round" x1="-237.602" y1="-165.769" x2="-237.602" y2="-179.16"/>
				<g id="connector0terminal_8_">
				</g>
				<g transform="matrix(1, 0, 0, 1, 3.429, 6.4262)">
					<g>
						<g transform="rotate(270)">
							<g>
								<g transform="matrix(1, 0, 0, 1, -12.6912, -0.1726)">
									<text transform="matrix(1 0 0 1 190.0168 -242.5874)" fill="#787878" font-family="'ArialMT'" font-size="3.7201">2</text>
								</g>
							</g>
						</g>
					</g>
				</g>
				
					<line id="connector1pin_5_" fill="none" stroke="#787878" stroke-width="2" stroke-linecap="round" x1="-237.602" y1="-205.947" x2="-237.602" y2="-192.553"/>
				<g id="connector1terminal_5_">
				</g>
				<g transform="matrix(1, 0, 0, 1, 3.429, 1.3462)">
					<g>
						<g transform="rotate(270)">
							<g>
								<g transform="matrix(1, 0, 0, 1, -3.3708, -0.1726)">
									<text transform="matrix(1 0 0 1 202.4025 -242.5874)" fill="#787878" font-family="'ArialMT'" font-size="3.7201">1</text>
								</g>
							</g>
						</g>
					</g>
				</g>
			</g>
		</g>
	</g>
</g>
<g>
	<line fill="none" stroke="#404040" stroke-width="2" stroke-linecap="round" x1="284.662" y1="408.076" x2="5.985" y2="408.076"/>
</g>
<g>
	<line fill="none" stroke="#404040" stroke-width="2" stroke-linecap="round" x1="5.985" y1="408.076" x2="5.985" y2="259.272"/>
</g>
<g>
	
		<line fill="none" stroke="#404040" stroke-width="2" stroke-linecap="round" x1="285.359" y1="407.427" x2="284.662" y2="408.076"/>
</g>
<g>
	<line fill="none" stroke="#404040" stroke-width="2" stroke-linecap="round" x1="272.066" y1="43.634" x2="5.985" y2="43.634"/>
</g>
<g>
	<line fill="none" stroke="#404040" stroke-width="2" stroke-linecap="round" x1="272.066" y1="101.892" x2="272.066" y2="43.634"/>
</g>
<g>
	<line fill="none" stroke="#404040" stroke-width="2" stroke-linecap="round" x1="5.985" y1="43.634" x2="5.985" y2="178.918"/>
</g>
<g>
	<line fill="none" stroke="#404040" stroke-width="2" stroke-linecap="round" x1="32.77" y1="219.096" x2="178.221" y2="219.937"/>
</g>
<g>
	
		<line fill="none" stroke="#404040" stroke-width="2" stroke-linecap="round" x1="285.359" y1="407.427" x2="286.287" y2="450.058"/>
</g>
<g>
	
		<line fill="none" stroke="#404040" stroke-width="2" stroke-linecap="round" x1="468.815" y1="345.755" x2="469.809" y2="472.132"/>
</g>
<circle cx="469.809" cy="472.132" r="2.678"/>
<g>
	<line fill="none" stroke="#404040" stroke-width="2" stroke-linecap="round" x1="464.692" y1="63.582" x2="464.85" y2="123.686"/>
</g>
<g>
	
		<line fill="none" stroke="#404040" stroke-width="2" stroke-linecap="round" x1="495.601" y1="260.113" x2="379.104" y2="260.113"/>
</g>
<g>
	
		<line fill="none" stroke="#404040" stroke-width="2" stroke-linecap="round" x1="495.601" y1="318.973" x2="495.601" y2="260.113"/>
</g>
<g>
	<line fill="none" stroke="#404040" stroke-width="2" stroke-linecap="round" x1="477.823" y1="63.582" x2="561.761" y2="63.582"/>
</g>
<g>
	<line fill="none" stroke="#404040" stroke-width="2" stroke-linecap="round" x1="561.761" y1="63.582" x2="561.761" y2="195.162"/>
</g>
<g>
	
		<line fill="none" stroke="#404040" stroke-width="2" stroke-linecap="round" x1="561.791" y1="345.755" x2="561.791" y2="248.101"/>
</g>
<g>
	
		<line fill="none" stroke="#404040" stroke-width="2" stroke-linecap="round" x1="522.384" y1="345.755" x2="561.791" y2="345.755"/>
</g>
<circle cx="522.384" cy="345.757" r="2.678"/>
<g>
	
		<line fill="none" stroke="#404040" stroke-width="2" stroke-linecap="round" x1="522.979" y1="405.291" x2="522.384" y2="345.755"/>
</g>
<circle cx="522.384" cy="345.757" r="2.678"/>
<g>
	
		<line fill="none" stroke="#404040" stroke-width="2" stroke-linecap="round" x1="522.979" y1="472.132" x2="469.809" y2="472.132"/>
</g>
<circle cx="469.809" cy="472.132" r="2.678"/>
<g>
	
		<line fill="none" stroke="#404040" stroke-width="2" stroke-linecap="round" x1="522.979" y1="445.468" x2="522.979" y2="472.132"/>
</g>
<g id="partLabel">
	<g transform="translate(108.639,47.1944)">
		<g id="schematicLabel">
			<text transform="matrix(1 0 0 1 93.3913 48.0278)" font-family="'ArialMT'" font-size="9.3001">Arduino</text>
		</g>
	</g>
</g>
<g id="partLabel_1_">
	<g transform="translate(8.92333,88.9252)">
		<g id="schematicLabel_1_">
			<text transform="matrix(1 0 0 1 7.6328 83.9152)" font-family="'ArialMT'" font-size="9.3001">Potentiometer</text>
		</g>
	</g>
</g>
<g id="partLabel_2_">
	<g transform="translate(272.639,115.158)">
		<g transform="matrix(1,0,0,1,0,0)">
			<g id="schematicLabel_2_">
				<text transform="matrix(1 0 0 1 234.4362 106.4782)" font-family="'ArialMT'" font-size="9.3001">Motor</text>
			</g>
		</g>
	</g>
</g>
<g id="partLabel_3_">
	<g transform="translate(292.203,226.323)">
		<g id="schematicLabel_3_">
			<text transform="matrix(1 0 0 1 251.2609 202.0828)" font-family="'ArialMT'" font-size="9.3001">Diode</text>
			<text transform="matrix(1 0 0 1 251.2609 211.3826)" font-family="'ArialMT'" font-size="9.3001">1N4001</text>
		</g>
	</g>
</g>
<g id="partLabel_4_">
	<g transform="translate(217.616,163.803)">
		<g id="schematicLabel_4_">
			<text transform="matrix(1 0 0 1 187.1135 148.3137)" font-family="'ArialMT'" font-size="9.3001">TIP 120 Transistor</text>
		</g>
	</g>
</g>
<g id="partLabel_5_">
	<g transform="translate(215.968,0)">
		<g id="schematicLabel_5_">
			<text transform="matrix(1 0 0 1 185.697 7.439)" font-family="'ArialMT'" font-size="9.3001">Power Plug</text>
		</g>
	</g>
</g>
</svg>
