<?xml version="1.0" encoding="utf-8"?>
<!-- Generator: Adobe Illustrator 16.0.0, SVG Export Plug-In . SVG Version: 6.00 Build 0)  -->
<!DOCTYPE svg PUBLIC "-//W3C//DTD SVG 1.1//EN" "http://www.w3.org/Graphics/SVG/1.1/DTD/svg11.dtd">
<svg version="1.1" id="Layer_1" xmlns:svg="http://www.w3.org/2000/svg"
	 xmlns="http://www.w3.org/2000/svg" xmlns:xlink="http://www.w3.org/1999/xlink" x="0px" y="0px" width="576.117px"
	 height="554.836px" viewBox="0 0 576.117 554.836" enable-background="new 0 0 576.117 554.836" xml:space="preserve">
<g>
	<g transform="translate(95.8386,31.0353)">
		<g id="schematic">
			
				<rect x="216.389" y="96.52" fill="#FFFFFF" stroke="#000000" stroke-width="2" stroke-linecap="round" width="220.926" height="383.449"/>
			
				<line id="connector61pin" fill="none" stroke="#787878" stroke-width="2" stroke-linecap="round" x1="437.596" y1="135.881" x2="478.229" y2="135.881"/>
			<text transform="matrix(1 0 0 1 404.5613 137.8544)" fill="#8C8C8C" font-family="'ArialMT'" font-size="9.8754">D0/RX</text>
			<g id="connector61terminal">
			</g>
			
				<line id="connector62pin" fill="none" stroke="#787878" stroke-width="2" stroke-linecap="round" x1="437.596" y1="156.196" x2="478.229" y2="156.196"/>
			<text transform="matrix(1 0 0 1 405.6619 158.1669)" fill="#8C8C8C" font-family="'ArialMT'" font-size="9.8754">D1/TX</text>
			<g id="connector62terminal">
			</g>
			
				<line id="connector63pin" fill="none" stroke="#787878" stroke-width="2" stroke-linecap="round" x1="437.596" y1="176.511" x2="478.229" y2="176.511"/>
			<text transform="matrix(1 0 0 1 421.0242 178.4823)" fill="#8C8C8C" font-family="'ArialMT'" font-size="9.8754">D2</text>
			<g id="connector63terminal">
			</g>
			
				<line id="connector64pin" fill="none" stroke="#787878" stroke-width="2" stroke-linecap="round" x1="437.596" y1="196.827" x2="478.229" y2="196.827"/>
			<text transform="matrix(1 0 0 1 394.1472 198.7987)" fill="#8C8C8C" font-family="'ArialMT'" font-size="9.8754">D3 PWM</text>
			<g id="connector64terminal">
			</g>
			
				<line id="connector65pin" fill="none" stroke="#787878" stroke-width="2" stroke-linecap="round" x1="437.596" y1="217.142" x2="478.229" y2="217.142"/>
			<text transform="matrix(1 0 0 1 421.0242 219.1151)" fill="#8C8C8C" font-family="'ArialMT'" font-size="9.8754">D4</text>
			<g id="connector65terminal">
			</g>
			
				<line id="connector66pin" fill="none" stroke="#787878" stroke-width="2" stroke-linecap="round" x1="437.596" y1="237.457" x2="478.229" y2="237.457"/>
			<text transform="matrix(1 0 0 1 394.1472 239.4296)" fill="#8C8C8C" font-family="'ArialMT'" font-size="9.8754">D5 PWM</text>
			<g id="connector66terminal">
			</g>
			
				<line id="connector67pin" fill="none" stroke="#787878" stroke-width="2" stroke-linecap="round" x1="437.596" y1="257.771" x2="478.229" y2="257.771"/>
			<text transform="matrix(1 0 0 1 394.1472 259.743)" fill="#8C8C8C" font-family="'ArialMT'" font-size="9.8754">D6 PWM</text>
			<g id="connector67terminal">
			</g>
			
				<line id="connector68pin" fill="none" stroke="#787878" stroke-width="2" stroke-linecap="round" x1="437.596" y1="278.087" x2="478.229" y2="278.087"/>
			<text transform="matrix(1 0 0 1 421.0242 280.0585)" fill="#8C8C8C" font-family="'ArialMT'" font-size="9.8754">D7</text>
			<g id="connector68terminal">
			</g>
			
				<line id="connector51pin" fill="none" stroke="#787878" stroke-width="2" stroke-linecap="round" x1="437.596" y1="298.403" x2="478.229" y2="298.403"/>
			<text transform="matrix(1 0 0 1 421.0242 300.3749)" fill="#8C8C8C" font-family="'ArialMT'" font-size="9.8754">D8</text>
			<g id="connector51terminal">
			</g>
			
				<line id="connector52pin" fill="none" stroke="#787878" stroke-width="2" stroke-linecap="round" x1="437.596" y1="318.719" x2="478.229" y2="318.719"/>
			<text transform="matrix(1 0 0 1 394.1472 320.6913)" fill="#8C8C8C" font-family="'ArialMT'" font-size="9.8754">D9 PWM</text>
			<g id="connector52terminal">
			</g>
			
				<line id="connector53pin" fill="none" stroke="#787878" stroke-width="2" stroke-linecap="round" x1="437.596" y1="339.032" x2="478.229" y2="339.032"/>
			<text transform="matrix(1 0 0 1 372.7371 341.0057)" fill="#8C8C8C" font-family="'ArialMT'" font-size="9.8754">D10 PWM/SS</text>
			<g id="connector53terminal">
			</g>
			
				<line id="connector54pin" fill="none" stroke="#787878" stroke-width="2" stroke-linecap="round" x1="437.596" y1="359.348" x2="478.229" y2="359.348"/>
			<text transform="matrix(1 0 0 1 361.4051 361.3221)" fill="#8C8C8C" font-family="'ArialMT'" font-size="9.8754">D11 PWM/MOSI</text>
			<g id="connector54terminal">
			</g>
			
				<line id="connector55pin" fill="none" stroke="#787878" stroke-width="2" stroke-linecap="round" x1="437.596" y1="379.663" x2="478.229" y2="379.663"/>
			<text transform="matrix(1 0 0 1 387.5496 381.6346)" fill="#8C8C8C" font-family="'ArialMT'" font-size="9.8754">D12/MISO</text>
			<g id="connector55terminal">
			</g>
			<line id="connector41pin" fill="none" x1="437.596" y1="399.979" x2="478.229" y2="399.979"/>
			<rect id="connector41terminal" x="478.229" y="398.99" fill="none" width="1.977" height="1.976"/>
			
				<line id="connector56pin" fill="none" stroke="#787878" stroke-width="2" stroke-linecap="round" x1="437.596" y1="399.979" x2="478.229" y2="399.979"/>
			<text transform="matrix(1 0 0 1 392.4832 401.9501)" fill="#8C8C8C" font-family="'ArialMT'" font-size="9.8754">D13/SCK</text>
			<g id="connector56terminal">
			</g>
			<line id="connector43pin" fill="none" x1="175.476" y1="135.881" x2="216.104" y2="135.881"/>
			<rect id="connector43terminal" x="173.501" y="134.893" fill="none" width="1.976" height="1.975"/>
			
				<line id="connector85pin" fill="none" stroke="#787878" stroke-width="2" stroke-linecap="round" x1="175.476" y1="135.881" x2="216.104" y2="135.881"/>
			<text transform="matrix(1 0 0 1 220.0574 137.8544)" fill="#8C8C8C" font-family="'ArialMT'" font-size="9.8754">RESET</text>
			<g id="connector85terminal">
			</g>
			
				<line id="connector49pin" fill="none" stroke="#787878" stroke-width="2" stroke-linecap="round" x1="175.476" y1="156.196" x2="216.104" y2="156.196"/>
			<text transform="matrix(1 0 0 1 220.0574 158.1669)" fill="#8C8C8C" font-family="'ArialMT'" font-size="9.8754">RESET2</text>
			<rect id="connector49terminal" x="173.501" y="155.207" fill="none" width="1.976" height="1.976"/>
			
				<line id="connector58pin" fill="none" stroke="#787878" stroke-width="2" stroke-linecap="round" x1="175.476" y1="176.511" x2="216.104" y2="176.511"/>
			<text transform="matrix(1 0 0 1 220.0574 178.4823)" fill="#8C8C8C" font-family="'ArialMT'" font-size="9.8754">AREF</text>
			<g id="connector58terminal">
			</g>
			
				<line id="connector84pin" fill="none" stroke="#787878" stroke-width="2" stroke-linecap="round" x1="175.476" y1="196.827" x2="216.104" y2="196.827"/>
			<text transform="matrix(1 0 0 1 220.0574 198.7987)" fill="#8C8C8C" font-family="'ArialMT'" font-size="9.8754">ioref</text>
			<g id="connector84terminal">
			</g>
			
				<line id="connector0pin" fill="none" stroke="#787878" stroke-width="2" stroke-linecap="round" x1="175.476" y1="237.457" x2="216.104" y2="237.457"/>
			<text transform="matrix(1 0 0 1 220.0574 239.4296)" fill="#8C8C8C" font-family="'ArialMT'" font-size="9.8754">A0</text>
			<g id="connector0terminal">
			</g>
			
				<line id="connector1pin" fill="none" stroke="#787878" stroke-width="2" stroke-linecap="round" x1="175.476" y1="257.771" x2="216.104" y2="257.771"/>
			<text transform="matrix(1 0 0 1 220.0574 259.743)" fill="#8C8C8C" font-family="'ArialMT'" font-size="9.8754">A1</text>
			<g id="connector1terminal">
			</g>
			
				<line id="connector2pin" fill="none" stroke="#787878" stroke-width="2" stroke-linecap="round" x1="175.476" y1="278.087" x2="216.104" y2="278.087"/>
			<text transform="matrix(1 0 0 1 220.0574 280.0585)" fill="#8C8C8C" font-family="'ArialMT'" font-size="9.8754">A2</text>
			<g id="connector2terminal">
			</g>
			
				<line id="connector3pin" fill="none" stroke="#787878" stroke-width="2" stroke-linecap="round" x1="175.476" y1="298.403" x2="216.104" y2="298.403"/>
			<text transform="matrix(1 0 0 1 220.0574 300.3749)" fill="#8C8C8C" font-family="'ArialMT'" font-size="9.8754">A3</text>
			<g id="connector3terminal">
			</g>
			<line id="connector48pin" fill="none" x1="175.476" y1="318.719" x2="216.104" y2="318.719"/>
			<rect id="connector48terminal" x="173.501" y="317.73" fill="none" width="1.976" height="1.976"/>
			<line id="connector45pin" fill="none" x1="175.476" y1="318.719" x2="216.104" y2="318.719"/>
			<rect id="connector45terminal" x="173.501" y="317.73" fill="none" width="1.976" height="1.976"/>
			<line id="connector4pin" fill="none" x1="175.476" y1="318.719" x2="216.104" y2="318.719"/>
			<g id="connector4terminal">
			</g>
			<line id="connector39pin" fill="none" x1="175.476" y1="318.719" x2="216.104" y2="318.719"/>
			<rect id="connector39terminal" x="173.501" y="317.73" fill="none" width="1.976" height="1.976"/>
			<line id="connector47pin" fill="none" x1="175.476" y1="318.719" x2="216.104" y2="318.719"/>
			<rect id="connector47terminal" x="173.501" y="317.73" fill="none" width="1.976" height="1.976"/>
			<line id="connector42pin" fill="none" x1="175.476" y1="318.719" x2="216.104" y2="318.719"/>
			<rect id="connector42terminal" x="173.501" y="317.73" fill="none" width="1.976" height="1.976"/>
			
				<line id="connector59pin" fill="none" stroke="#787878" stroke-width="2" stroke-linecap="round" x1="175.476" y1="318.719" x2="216.104" y2="318.719"/>
			<text transform="matrix(1 0 0 1 220.0574 320.6913)" fill="#8C8C8C" font-family="'ArialMT'" font-size="9.8754">A4/SDA</text>
			<g id="connector59terminal">
			</g>
			<line id="connector5pin" fill="none" x1="175.476" y1="339.032" x2="216.104" y2="339.032"/>
			<g id="connector5terminal">
			</g>
			
				<line id="connector60pin" fill="none" stroke="#787878" stroke-width="2" stroke-linecap="round" x1="175.476" y1="339.032" x2="216.104" y2="339.032"/>
			<text transform="matrix(1 0 0 1 220.0574 341.0057)" fill="#8C8C8C" font-family="'ArialMT'" font-size="9.8754">A5/SCL</text>
			<g id="connector60terminal">
			</g>
			
				<line id="connector91pin" fill="none" stroke="#787878" stroke-width="2" stroke-linecap="round" x1="175.476" y1="440.608" x2="216.104" y2="440.608"/>
			<text transform="matrix(1 0 0 1 220.0574 442.5819)" fill="#8C8C8C" font-family="'ArialMT'" font-size="9.8754">N/C</text>
			<g id="connector91terminal">
			</g>
			<line id="connector88pin" fill="none" x1="337.011" y1="480.253" x2="337.011" y2="520.882"/>
			<g id="connector88terminal">
			</g>
			<line id="connector57pin" fill="none" x1="337.011" y1="480.253" x2="337.011" y2="520.882"/>
			<g id="connector57terminal">
			</g>
			<line id="connector44pin" fill="none" x1="337.011" y1="480.253" x2="337.011" y2="520.882"/>
			<rect id="connector44terminal" x="336.02" y="520.882" fill="none" width="1.977" height="1.977"/>
			<line id="connector50pin" fill="none" x1="337.011" y1="480.253" x2="337.011" y2="520.882"/>
			<rect id="connector50terminal" x="336.02" y="520.882" fill="none" width="1.977" height="1.977"/>
			
				<line id="connector89pin" fill="none" stroke="#787878" stroke-width="2" stroke-linecap="round" x1="337.011" y1="480.253" x2="337.011" y2="520.882"/>
			<g transform="matrix(1, 0, 0, 1, 58.2999, 149.45)">
				<g>
					<g transform="rotate(270)">
						<g>
							<text transform="matrix(1 0 0 1 -326.8526 280.6852)" fill="#8C8C8C" font-family="'ArialMT'" font-size="9.8754">GND</text>
						</g>
					</g>
				</g>
			</g>
			<g id="connector89terminal">
			</g>
			
				<line id="connector86pin" fill="none" stroke="#787878" stroke-width="2" stroke-linecap="round" x1="276.063" y1="55.607" x2="276.063" y2="96.238"/>
			<g transform="matrix(1, 0, 0, 1, 36.6999, 16.15)">
				<g>
					<g transform="rotate(270)">
						<g>
							<text transform="matrix(1 0 0 1 -101.6096 241.338)" fill="#8C8C8C" font-family="'ArialMT'" font-size="9.8754">3V3</text>
						</g>
					</g>
				</g>
			</g>
			<g id="connector86terminal">
			</g>
			<line id="connector40pin" fill="none" x1="316.694" y1="55.607" x2="316.694" y2="96.238"/>
			<rect id="connector40terminal" x="315.71" y="53.633" fill="none" width="1.973" height="1.974"/>
			<line id="connector46pin" fill="none" x1="316.694" y1="55.607" x2="316.694" y2="96.238"/>
			<rect id="connector46terminal" x="315.71" y="53.633" fill="none" width="1.973" height="1.974"/>
			
				<line id="connector87pin" fill="none" stroke="#787878" stroke-width="2" stroke-linecap="round" x1="316.694" y1="55.607" x2="316.694" y2="96.238"/>
			<g transform="matrix(1, 0, 0, 1, 51.0999, 16.15)">
				<g>
					<g transform="rotate(270)">
						<g>
							<text transform="matrix(1 0 0 1 -96.1174 267.5698)" fill="#8C8C8C" font-family="'ArialMT'" font-size="9.8754">5V</text>
						</g>
					</g>
				</g>
			</g>
			<g id="connector87terminal">
			</g>
			
				<line id="connector90pin" fill="none" stroke="#787878" stroke-width="2" stroke-linecap="round" x1="357.327" y1="55.607" x2="357.327" y2="96.238"/>
			<g transform="matrix(1, 0, 0, 1, 65.4999, 16.15)">
				<g>
					<g transform="rotate(270)">
						<g>
							<text transform="matrix(1 0 0 1 -100.5002 293.8016)" fill="#8C8C8C" font-family="'ArialMT'" font-size="9.8754">VIN</text>
						</g>
					</g>
				</g>
			</g>
			<g id="connector90terminal">
			</g>
			<text id="label" transform="matrix(1 0 0 1 307.4568 270.3241)" font-family="'ArialMT'" font-size="11.9916">Arduino</text>
			<text id="label_1_" transform="matrix(1 0 0 1 317.1248 283.118)" font-family="'ArialMT'" font-size="11.9916">Uno</text>
			<text id="label_2_" transform="matrix(1 0 0 1 310.1326 295.9091)" font-family="'ArialMT'" font-size="11.9916">(Rev3)</text>
		</g>
	</g>
</g>
<g>
	<g transform="translate(0,73.4328)">
		<g id="schematic_1_">
			<line fill="none" stroke="#000000" stroke-width="2" stroke-linecap="round" x1="9.056" y1="234.414" x2="9.056" y2="230.35"/>
			<line fill="none" stroke="#000000" stroke-width="2" stroke-linecap="round" x1="9.056" y1="230.35" x2="0.928" y2="224.255"/>
			<line fill="none" stroke="#000000" stroke-width="2" stroke-linecap="round" x1="0.928" y1="224.255" x2="19.213" y2="214.098"/>
			<line fill="none" stroke="#000000" stroke-width="2" stroke-linecap="round" x1="19.213" y1="214.098" x2="0.928" y2="203.941"/>
			<line fill="none" stroke="#000000" stroke-width="2" stroke-linecap="round" x1="0.928" y1="203.941" x2="19.213" y2="193.783"/>
			<line fill="none" stroke="#000000" stroke-width="2" stroke-linecap="round" x1="19.213" y1="193.783" x2="0.928" y2="183.624"/>
			<line fill="none" stroke="#000000" stroke-width="2" stroke-linecap="round" x1="0.928" y1="183.624" x2="19.213" y2="173.468"/>
			<line fill="none" stroke="#000000" stroke-width="2" stroke-linecap="round" x1="19.213" y1="173.468" x2="0.928" y2="163.31"/>
			<line fill="none" stroke="#000000" stroke-width="2" stroke-linecap="round" x1="0.928" y1="163.31" x2="9.056" y2="157.215"/>
			<line fill="none" stroke="#000000" stroke-width="2" stroke-linecap="round" x1="9.056" y1="157.215" x2="9.056" y2="153.153"/>
			
				<line fill="none" stroke="#000000" stroke-width="2" stroke-linecap="round" x1="19.213" y1="193.783" x2="29.369" y2="183.624"/>
			
				<line fill="none" stroke="#000000" stroke-width="2" stroke-linecap="round" x1="29.369" y1="203.941" x2="19.213" y2="193.783"/>
			
				<line fill="none" stroke="#000000" stroke-width="2" stroke-linecap="round" x1="29.369" y1="183.624" x2="29.369" y2="203.941"/>
			
				<line fill="none" stroke="#000000" stroke-width="2" stroke-linecap="round" x1="25.308" y1="231.367" x2="25.308" y2="211.052"/>
			
				<line fill="none" stroke="#000000" stroke-width="2" stroke-linecap="round" x1="25.308" y1="211.052" x2="30.386" y2="221.207"/>
			
				<line fill="none" stroke="#000000" stroke-width="2" stroke-linecap="round" x1="30.386" y1="221.207" x2="20.229" y2="221.207"/>
			
				<line fill="none" stroke="#000000" stroke-width="2" stroke-linecap="round" x1="20.229" y1="221.207" x2="25.308" y2="211.052"/>
			
				<line id="connector2pin_1_" fill="none" stroke="#787878" stroke-width="2" stroke-linecap="round" x1="9.056" y1="254.729" x2="9.056" y2="234.414"/>
			<g id="connector2terminal_1_">
			</g>
			<g transform="matrix(1, 0, 0, 1, 2.19, 39.9502)">
				<g>
					<g transform="rotate(270)">
						<g>
							<text transform="matrix(1 0 0 1 -206.5799 3.9028)" fill="#8C8C8C" font-family="'ArialMT'" font-size="7.0539">3</text>
						</g>
					</g>
				</g>
			</g>
			
				<line id="connector0pin_1_" fill="none" stroke="#787878" stroke-width="2" stroke-linecap="round" x1="9.056" y1="132.836" x2="9.056" y2="153.153"/>
			<g id="connector0terminal_1_">
			</g>
			<g transform="matrix(1, 0, 0, 1, 2.19, 3.95)">
				<g>
					<g transform="rotate(270)">
						<g>
							<text transform="matrix(1 0 0 1 -141.002 3.9028)" fill="#8C8C8C" font-family="'ArialMT'" font-size="7.0539">1</text>
						</g>
					</g>
				</g>
			</g>
			
				<line id="connector1pin_1_" fill="none" stroke="#787878" stroke-width="2" stroke-linecap="round" x1="49.685" y1="193.783" x2="29.369" y2="193.783"/>
			<g id="connector1terminal_1_">
			</g>
			<text transform="matrix(1 0 0 1 37.5669 190.8172)" fill="#8C8C8C" font-family="'ArialMT'" font-size="7.0539">2</text>
		</g>
	</g>
</g>
<g>
	<line fill="none" stroke="#404040" stroke-width="2" stroke-linecap="round" x1="9.056" y1="553.887" x2="9.056" y2="328.163"/>
</g>
<g>
	<line fill="none" stroke="#404040" stroke-width="2" stroke-linecap="round" x1="431.791" y1="553.887" x2="9.056" y2="553.887"/>
</g>
<g>
	
		<line fill="none" stroke="#404040" stroke-width="2" stroke-linecap="round" x1="432.849" y1="552.907" x2="431.791" y2="553.887"/>
</g>
<g>
	<line fill="none" stroke="#404040" stroke-width="2" stroke-linecap="round" x1="412.535" y1="1.051" x2="9.056" y2="1.051"/>
</g>
<g>
	<line fill="none" stroke="#404040" stroke-width="2" stroke-linecap="round" x1="412.535" y1="89.426" x2="412.535" y2="1.051"/>
</g>
<g>
	<line fill="none" stroke="#404040" stroke-width="2" stroke-linecap="round" x1="9.056" y1="1.051" x2="9.056" y2="206.269"/>
</g>
<g>
	<line fill="none" stroke="#404040" stroke-width="2" stroke-linecap="round" x1="49.685" y1="267.216" x2="270.325" y2="268.493"/>
</g>
<g id="partLabel">
	<g transform="translate(108.639,25.0353)">
		<g id="schematicLabel">
			<text transform="matrix(1 0 0 1 197.8058 54.2694)" font-family="'ArialMT'" font-size="14.1078">Arduino</text>
		</g>
	</g>
</g>
<g id="partLabel_1_">
	<g transform="translate(8.92333,66.7661)">
		<g id="schematicLabel_1_">
			<text transform="matrix(1 0 0 1 16.168 130.2847)" font-family="'ArialMT'" font-size="14.1078">Potentiometer</text>
		</g>
	</g>
</g>
</svg>
